<?xml version="1.0" encoding="UTF-8"?>
<svg width="18px" height="18px" viewBox="0 0 18 18" version="1.1" xmlns="http://www.w3.org/2000/svg" xmlns:xlink="http://www.w3.org/1999/xlink">
    <!-- Generator: Sketch 53 (72520) - https://sketchapp.com -->
    <title>sun</title>
    <desc>Created with Sketch.</desc>
    <defs>
        <path d="M9,13.5 C6.51471863,13.5 4.5,11.4852814 4.5,9 C4.5,6.51471863 6.51471863,4.5 9,4.5 C11.4852814,4.5 13.5,6.51471863 13.5,9 C13.5,11.4852814 11.4852814,13.5 9,13.5 Z M9,12 C10.6568542,12 12,10.6568542 12,9 C12,7.34314575 10.6568542,6 9,6 C7.34314575,6 6,7.34314575 6,9 C6,10.6568542 7.34314575,12 9,12 Z M8.25,0.75 C8.25,0.335786438 8.58578644,0 9,0 C9.41421356,0 9.75,0.335786438 9.75,0.75 L9.75,2.25 C9.75,2.66421356 9.41421356,3 9,3 C8.58578644,3 8.25,2.66421356 8.25,2.25 L8.25,0.75 Z M8.25,15.75 C8.25,15.3357864 8.58578644,15 9,15 C9.41421356,15 9.75,15.3357864 9.75,15.75 L9.75,17.25 C9.75,17.6642136 9.41421356,18 9,18 C8.58578644,18 8.25,17.6642136 8.25,17.25 L8.25,15.75 Z M2.63466991,3.69533009 C2.3417767,3.40243687 2.3417767,2.92756313 2.63466991,2.63466991 C2.92756313,2.3417767 3.40243687,2.3417767 3.69533009,2.63466991 L4.76033009,3.69966991 C5.0532233,3.99256313 5.0532233,4.46743687 4.76033009,4.76033009 C4.46743687,5.0532233 3.99256313,5.0532233 3.69966991,4.76033009 L2.63466991,3.69533009 Z M13.2396699,14.3003301 C12.9467767,14.0074369 12.9467767,13.5325631 13.2396699,13.2396699 C13.5325631,12.9467767 14.0074369,12.9467767 14.3003301,13.2396699 L15.3653301,14.3046699 C15.6582233,14.5975631 15.6582233,15.0724369 15.3653301,15.3653301 C15.0724369,15.6582233 14.5975631,15.6582233 14.3046699,15.3653301 L13.2396699,14.3003301 Z M0.75,9.75 C0.335786438,9.75 0,9.41421356 0,9 C0,8.58578644 0.335786438,8.25 0.75,8.25 L2.25,8.25 C2.66421356,8.25 3,8.58578644 3,9 C3,9.41421356 2.66421356,9.75 2.25,9.75 L0.75,9.75 Z M15.75,9.75 C15.3357864,9.75 15,9.41421356 15,9 C15,8.58578644 15.3357864,8.25 15.75,8.25 L17.25,8.25 C17.6642136,8.25 18,8.58578644 18,9 C18,9.41421356 17.6642136,9.75 17.25,9.75 L15.75,9.75 Z M3.69533009,15.3653301 C3.40243687,15.6582233 2.92756313,15.6582233 2.63466991,15.3653301 C2.3417767,15.0724369 2.3417767,14.5975631 2.63466991,14.3046699 L3.69966991,13.2396699 C3.99256313,12.9467767 4.46743687,12.9467767 4.76033009,13.2396699 C5.0532233,13.5325631 5.0532233,14.0074369 4.76033009,14.3003301 L3.69533009,15.3653301 Z M14.3003301,4.76033009 C14.0074369,5.0532233 13.5325631,5.0532233 13.2396699,4.76033009 C12.9467767,4.46743687 12.9467767,3.99256313 13.2396699,3.69966991 L14.3046699,2.63466991 C14.5975631,2.3417767 15.0724369,2.3417767 15.3653301,2.63466991 C15.6582233,2.92756313 15.6582233,3.40243687 15.3653301,3.69533009 L14.3003301,4.76033009 Z" id="path-1"></path>
    </defs>
    <g id="Symbols" stroke="none" stroke-width="1" fill="none" fill-rule="evenodd">
        <g id="Cards/Card_4" transform="translate(-248.000000, -116.000000)">
            <g id="Group-34" transform="translate(-2.000000, -1.000000)">
                <g id="sun" transform="translate(250.000000, 117.000000)">
                    <mask id="mask-2" fill="white">
                        <use xlink:href="#path-1"></use>
                    </mask>
                    <use id="Combined-Shape" fill="#000000" fill-rule="nonzero" xlink:href="#path-1"></use>
                    <g id="COLOR/-black" mask="url(#mask-2)" fill="#FFFFFF">
                        <rect id="Rectangle" x="0" y="0" width="18" height="18"></rect>
                    </g>
                </g>
            </g>
        </g>
    </g>
</svg>