<?xml version="1.0" encoding="UTF-8"?>
<svg width="18px" height="18px" viewBox="0 0 18 18" version="1.1" xmlns="http://www.w3.org/2000/svg" xmlns:xlink="http://www.w3.org/1999/xlink">
    <!-- Generator: Sketch 53 (72520) - https://sketchapp.com -->
    <title>sunset</title>
    <desc>Created with Sketch.</desc>
    <defs>
        <path d="M8.25,4.93933983 L8.25,1.5 C8.25,1.08578644 8.58578644,0.75 9,0.75 C9.41421356,0.75 9.75,1.08578644 9.75,1.5 L9.75,4.93933983 L11.4696699,3.21966991 C11.7625631,2.9267767 12.2374369,2.9267767 12.5303301,3.21966991 C12.8232233,3.51256313 12.8232233,3.98743687 12.5303301,4.28033009 L9.53033009,7.28033009 C9.23743687,7.5732233 8.76256313,7.5732233 8.46966991,7.28033009 L5.46966991,4.28033009 C5.1767767,3.98743687 5.1767767,3.51256313 5.46966991,3.21966991 C5.76256313,2.9267767 6.23743687,2.9267767 6.53033009,3.21966991 L8.25,4.93933983 Z M13.5,13.5 C13.5,13.9142136 13.1642136,14.25 12.75,14.25 C12.3357864,14.25 12,13.9142136 12,13.5 C12,11.8431458 10.6568542,10.5 9,10.5 C7.34314575,10.5 6,11.8431458 6,13.5 C6,13.9142136 5.66421356,14.25 5.25,14.25 C4.83578644,14.25 4.5,13.9142136 4.5,13.5 C4.5,11.0147186 6.51471863,9 9,9 C11.4852814,9 13.5,11.0147186 13.5,13.5 Z M2.63466991,8.19533009 C2.3417767,7.90243687 2.3417767,7.42756313 2.63466991,7.13466991 C2.92756313,6.8417767 3.40243687,6.8417767 3.69533009,7.13466991 L4.76033009,8.19966991 C5.0532233,8.49256313 5.0532233,8.96743687 4.76033009,9.26033009 C4.46743687,9.5532233 3.99256313,9.5532233 3.69966991,9.26033009 L2.63466991,8.19533009 Z M0.75,14.25 C0.335786438,14.25 0,13.9142136 0,13.5 C0,13.0857864 0.335786438,12.75 0.75,12.75 L2.25,12.75 C2.66421356,12.75 3,13.0857864 3,13.5 C3,13.9142136 2.66421356,14.25 2.25,14.25 L0.75,14.25 Z M15.75,14.25 C15.3357864,14.25 15,13.9142136 15,13.5 C15,13.0857864 15.3357864,12.75 15.75,12.75 L17.25,12.75 C17.6642136,12.75 18,13.0857864 18,13.5 C18,13.9142136 17.6642136,14.25 17.25,14.25 L15.75,14.25 Z M14.3003301,9.26033009 C14.0074369,9.5532233 13.5325631,9.5532233 13.2396699,9.26033009 C12.9467767,8.96743687 12.9467767,8.49256313 13.2396699,8.19966991 L14.3046699,7.13466991 C14.5975631,6.8417767 15.0724369,6.8417767 15.3653301,7.13466991 C15.6582233,7.42756313 15.6582233,7.90243687 15.3653301,8.19533009 L14.3003301,9.26033009 Z M17.25,15.75 C17.6642136,15.75 18,16.0857864 18,16.5 C18,16.9142136 17.6642136,17.25 17.25,17.25 L0.75,17.25 C0.335786438,17.25 0,16.9142136 0,16.5 C0,16.0857864 0.335786438,15.75 0.75,15.75 L17.25,15.75 Z" id="path-1"></path>
    </defs>
    <g id="Symbols" stroke="none" stroke-width="1" fill="none" fill-rule="evenodd">
        <g id="Cards/Card_4" transform="translate(-248.000000, -155.000000)">
            <g id="Group-34" transform="translate(-2.000000, -1.000000)">
                <g id="sunset" transform="translate(250.000000, 156.000000)">
                    <mask id="mask-2" fill="white">
                        <use xlink:href="#path-1"></use>
                    </mask>
                    <use id="Combined-Shape" fill="#000000" fill-rule="nonzero" xlink:href="#path-1"></use>
                    <g id="COLOR/-black" mask="url(#mask-2)" fill="#FFFFFF">
                        <rect id="Rectangle" x="0" y="0" width="18" height="18"></rect>
                    </g>
                </g>
            </g>
        </g>
    </g>
</svg>