<svg xmlns="http://www.w3.org/2000/svg" width="159" height="27" viewBox="0 0 159 27">
    <path fill="#FFF" fill-rule="evenodd" d="M1.316 13.063c0-3.486 3.008-5.776 7.673-5.776 4.7 0 7.605 2.41 7.708 5.998H12.1c-.154-1.487-1.265-2.495-3.11-2.495-1.727 0-2.872.786-2.872 2 0 .94.684 1.572 2.53 1.965l3.127.666c3.828.804 5.4 2.308 5.4 4.99 0 3.607-3.298 5.982-8.015 5.982-5.058 0-7.98-2.358-8.306-5.964h4.871c.308 1.606 1.453 2.46 3.435 2.46 1.88 0 3.042-.768 3.042-1.965 0-.974-.632-1.52-2.427-1.93l-3.127-.65c-3.538-.752-5.332-2.53-5.332-5.281zm19.653-9.605h4.99V7.68h3.384v3.76H25.96v8.767c0 1.4.684 2.067 2.154 2.067.444 0 .906-.034 1.213-.085v3.674c-.513.12-1.367.205-2.375.205-4.307 0-5.982-1.435-5.982-5.007v-9.622h-2.58V7.68h2.58V3.46zm18.013 19.227c2.17 0 3.965-1.419 3.965-3.401V17.95l-3.863.239c-1.862.137-2.922.974-2.922 2.273 0 1.367 1.128 2.222 2.82 2.222zm-1.64 3.606c-3.487 0-6.136-2.256-6.136-5.555 0-3.332 2.564-5.263 7.127-5.537l4.614-.273v-1.214c0-1.709-1.197-2.7-3.076-2.7-1.863 0-3.042.923-3.282 2.273h-4.563c.188-3.555 3.213-5.998 8.067-5.998 4.7 0 7.759 2.426 7.759 6.118V26h-4.82v-2.803h-.102c-1.026 1.949-3.299 3.094-5.589 3.094zM51.063 26V7.68h4.82v3.298h.102c.65-2.324 2.205-3.589 4.358-3.589.581 0 1.077.086 1.419.188v4.392c-.41-.17-1.094-.29-1.812-.29-2.46 0-3.896 1.504-3.896 4.084V26h-4.99zm19.38-3.315c2.17 0 3.965-1.419 3.965-3.401V17.95l-3.862.239c-1.863.137-2.922.974-2.922 2.273 0 1.367 1.127 2.222 2.82 2.222zm-1.64 3.606c-3.487 0-6.136-2.256-6.136-5.555 0-3.332 2.564-5.263 7.127-5.537l4.614-.273v-1.214c0-1.709-1.196-2.7-3.076-2.7-1.863 0-3.042.923-3.281 2.273h-4.563c.188-3.555 3.213-5.998 8.066-5.998 4.7 0 7.759 2.426 7.759 6.118V26h-4.82v-2.803h-.102c-1.025 1.949-3.298 3.094-5.588 3.094zm20.525 0c-4.58 0-7.469-3.624-7.469-9.485 0-5.81 2.906-9.417 7.503-9.417 2.649 0 4.7 1.402 5.588 3.435h.103V1.34h4.99V26h-4.922v-3.145h-.085c-.89 2.017-3.008 3.436-5.708 3.436zm1.692-14.903c-2.513 0-4.05 2.102-4.05 5.452 0 3.367 1.537 5.434 4.05 5.434 2.478 0 4.067-2.085 4.067-5.434 0-3.333-1.59-5.452-4.067-5.452zM103.376 26V7.68h4.82v3.315h.102c.77-2.204 2.735-3.657 5.23-3.657 2.649 0 4.494 1.367 5.11 3.76h.102c.82-2.307 3.008-3.76 5.691-3.76 3.589 0 5.999 2.46 5.999 6.152V26h-4.99V14.738c0-2.12-1.06-3.281-2.991-3.281-1.897 0-3.145 1.384-3.145 3.418V26h-4.802V14.584c0-1.965-1.11-3.127-2.957-3.127-1.897 0-3.178 1.435-3.178 3.486V26h-4.99zm30.3 0V7.68h4.991V26h-4.99zm2.479-20.798c-1.453 0-2.598-1.162-2.598-2.564 0-1.418 1.145-2.563 2.598-2.563 1.452 0 2.597 1.145 2.597 2.563 0 1.402-1.145 2.564-2.597 2.564zM141.982 26V7.68h4.82v3.264h.102c.974-2.273 2.906-3.606 5.725-3.606 4.068 0 6.358 2.563 6.358 6.853V26h-4.99V15.233c0-2.392-1.128-3.76-3.367-3.76s-3.657 1.641-3.657 4.017V26h-4.99z"/>
</svg>
