<?xml version="1.0" encoding="UTF-8"?>
<svg width="153px" height="26px" viewBox="0 0 153 26" version="1.1" xmlns="http://www.w3.org/2000/svg" xmlns:xlink="http://www.w3.org/1999/xlink">
    <!-- Generator: Sketch 53 (72520) - https://sketchapp.com -->
    <title>Group 2</title>
    <desc>Created with Sketch.</desc>
    <defs>
        <linearGradient x1="86.6421569%" y1="56.5831801%" x2="-31.0642397%" y2="31.0642397%" id="linearGradient-1">
            <stop stop-color="#3DB4FF" offset="0%"></stop>
            <stop stop-color="#3C50F2" offset="100%"></stop>
        </linearGradient>
        <circle id="path-2" cx="13" cy="13" r="13"></circle>
        <linearGradient x1="53.5667155%" y1="48.4332825%" x2="-52.5667165%" y2="48.4332825%" id="linearGradient-4">
            <stop stop-color="#54A5F6" offset="0%"></stop>
            <stop stop-color="#1088EE" offset="100%"></stop>
        </linearGradient>
    </defs>
    <g id="Symbols" stroke="none" stroke-width="1" fill="none" fill-rule="evenodd">
        <g id="Modern-dashboard-/-leftmenu" transform="translate(-37.000000, -27.000000)">
            <g id="Group-2" transform="translate(37.000000, 27.000000)">
                <path d="M38.5122108,12.5257453 C38.5122108,13.9932249 44.783419,13.0149051 44.783419,17.7777778 C44.783419,20.7384824 42.2341474,22 39.480934,22 C36.9316624,22 34.9942159,21.0216802 34,18.9363144 L37.3140531,17.0311653 C37.6454584,18.0094851 38.3592545,18.5501355 39.480934,18.5501355 C40.3986718,18.5501355 40.8575407,18.2669377 40.8575407,17.7520325 C40.8575407,16.3360434 34.5863325,17.0826558 34.5863325,12.6287263 C34.5863325,9.82249322 36.9316624,8.40650407 39.5829049,8.40650407 C41.6478149,8.40650407 43.4832905,9.33333333 44.5539846,11.1612466 L41.2909169,12.9376694 C40.9340189,12.2682927 40.4241645,11.804878 39.5829049,11.804878 C38.9200943,11.804878 38.5122108,12.0623306 38.5122108,12.5257453 Z M53.7823479,12.4742547 L51.1565981,12.4742547 L51.1565981,17.0311653 C51.1565981,18.1382114 52.0998286,18.2411924 53.7823479,18.1382114 L53.7823479,21.6395664 C48.7857755,22.1544715 47.3326907,20.6355014 47.3326907,17.0311653 L47.3326907,12.4742547 L45.2932734,12.4742547 L45.2932734,8.76693767 L47.3326907,8.76693767 L47.3326907,6.32113821 L51.1565981,5.16260163 L51.1565981,8.76693767 L53.7823479,8.76693767 L53.7823479,12.4742547 Z M64.9481577,8.76693767 L68.7720651,8.76693767 L68.7720651,21.6395664 L64.9481577,21.6395664 L64.9481577,20.4295393 C64.106898,21.4078591 62.8577549,22 61.1497429,22 C57.8101971,22 55.0569837,19.0392954 55.0569837,15.203252 C55.0569837,11.3672087 57.8101971,8.40650407 61.1497429,8.40650407 C62.8577549,8.40650407 64.106898,8.99864499 64.9481577,9.97696477 L64.9481577,8.76693767 Z M61.9145244,18.3441734 C63.6735219,18.3441734 64.9481577,17.1341463 64.9481577,15.203252 C64.9481577,13.2723577 63.6735219,12.0623306 61.9145244,12.0623306 C60.155527,12.0623306 58.8808912,13.2723577 58.8808912,15.203252 C58.8808912,17.1341463 60.155527,18.3441734 61.9145244,18.3441734 Z M75.4001714,11.0582656 C75.9100257,9.33333333 77.6180377,8.50948509 79.2240788,8.50948509 L79.2240788,12.8861789 C77.6435304,12.6287263 75.4001714,13.2723577 75.4001714,15.8211382 L75.4001714,21.6395664 L71.5762639,21.6395664 L71.5762639,8.76693767 L75.4001714,8.76693767 L75.4001714,11.0582656 Z M89.8800343,8.76693767 L93.7039417,8.76693767 L93.7039417,21.6395664 L89.8800343,21.6395664 L89.8800343,20.4295393 C89.0387746,21.4078591 87.7896315,22 86.0816195,22 C82.7420737,22 79.9888603,19.0392954 79.9888603,15.203252 C79.9888603,11.3672087 82.7420737,8.40650407 86.0816195,8.40650407 C87.7896315,8.40650407 89.0387746,8.99864499 89.8800343,9.97696477 L89.8800343,8.76693767 Z M86.846401,18.3441734 C88.6053985,18.3441734 89.8800343,17.1341463 89.8800343,15.203252 C89.8800343,13.2723577 88.6053985,12.0623306 86.846401,12.0623306 C85.0874036,12.0623306 83.8127678,13.2723577 83.8127678,15.203252 C83.8127678,17.1341463 85.0874036,18.3441734 86.846401,18.3441734 Z M105.761997,3.61788618 L109.585904,3.61788618 L109.585904,21.6395664 L105.761997,21.6395664 L105.761997,20.4295393 C104.920737,21.4078591 103.671594,22 101.963582,22 C98.624036,22 95.8708226,19.0392954 95.8708226,15.203252 C95.8708226,11.3672087 98.624036,8.40650407 101.963582,8.40650407 C103.671594,8.40650407 104.920737,8.99864499 105.761997,9.97696477 L105.761997,3.61788618 Z M102.728363,18.3441734 C104.487361,18.3441734 105.761997,17.1341463 105.761997,15.203252 C105.761997,13.2723577 104.487361,12.0623306 102.728363,12.0623306 C100.969366,12.0623306 99.6947301,13.2723577 99.6947301,15.203252 C99.6947301,17.1341463 100.969366,18.3441734 102.728363,18.3441734 Z M126.666024,8.40650407 C129.597686,8.40650407 131.50964,10.5176152 131.50964,13.7357724 L131.50964,21.6395664 L127.685733,21.6395664 L127.685733,14.0704607 C127.685733,12.7831978 127.073907,11.9593496 125.850257,11.9593496 C124.575621,11.9593496 123.861825,12.8604336 123.861825,14.3794038 L123.861825,21.6395664 L120.037918,21.6395664 L120.037918,14.0704607 C120.037918,12.7831978 119.426093,11.9593496 118.202442,11.9593496 C116.927806,11.9593496 116.21401,12.8604336 116.21401,14.3794038 L116.21401,21.6395664 L112.390103,21.6395664 L112.390103,8.76693767 L116.21401,8.76693767 L116.21401,9.95121951 C116.800343,9.07588076 117.922022,8.40650407 119.630034,8.40650407 C121.134105,8.40650407 122.255784,9.02439024 122.96958,10.1056911 C123.683376,9.07588076 124.856041,8.40650407 126.666024,8.40650407 Z M136.047344,7.63414634 C134.798201,7.63414634 133.752999,6.57859079 133.752999,5.31707317 C133.752999,4.05555556 134.798201,3 136.047344,3 C137.296487,3 138.341688,4.05555556 138.341688,5.31707317 C138.341688,6.57859079 137.296487,7.63414634 136.047344,7.63414634 Z M134.13539,21.6395664 L134.13539,8.76693767 L137.959297,8.76693767 L137.959297,21.6395664 L134.13539,21.6395664 Z M148.232862,8.40650407 C150.807626,8.40650407 153,10.2601626 153,13.7357724 L153,21.6395664 L149.176093,21.6395664 L149.176093,14.302168 C149.176093,12.7059621 148.181877,11.9593496 146.958226,11.9593496 C145.556127,11.9593496 144.587404,12.7831978 144.587404,14.6111111 L144.587404,21.6395664 L140.763496,21.6395664 L140.763496,8.76693767 L144.587404,8.76693767 L144.587404,9.97696477 C145.275707,9.02439024 146.550343,8.40650407 148.232862,8.40650407 Z" id="staradmin" fill="#283073" fill-rule="nonzero"></path>
                <g id="Group">
                    <g id="Path-7">
                        <mask id="mask-3" fill="white">
                            <use xlink:href="#path-2"></use>
                        </mask>
                        <use id="Mask" fill="url(#linearGradient-1)" fill-rule="nonzero" xlink:href="#path-2"></use>
                        <polygon fill="url(#linearGradient-4)" fill-rule="nonzero" mask="url(#mask-3)" points="4.45281863 30.3452819 22.1037837 13.7647059 37.2156863 28.6505821"></polygon>
                    </g>
                    <path d="M13.1397849,17.6129032 C11.0849462,17.6129032 9.77096774,16.5645161 9.22580645,15.0218894 L11.1548387,13.8237327 C11.5043011,14.6923963 12.1053763,15.2764977 13.2096774,15.2764977 C14.272043,15.2764977 14.5376344,14.8271889 14.5376344,14.4228111 C14.5376344,13.7788018 13.9784946,13.5241935 12.5107527,13.0898618 C11.0569892,12.65553 9.6311828,11.906682 9.6311828,9.89976959 C9.6311828,7.87788018 11.2247312,6.70967742 12.916129,6.70967742 C14.5236559,6.70967742 15.7817204,7.53341014 16.4946237,9.07603687 L14.6075269,10.2592166 C14.272043,9.51036866 13.8107527,9.04608295 12.916129,9.04608295 C12.2172043,9.04608295 11.8677419,9.42050691 11.8677419,9.83986175 C11.8677419,10.3191244 12.1053763,10.6486175 13.6290323,11.1428571 C15.1107527,11.6221198 16.7741935,12.1762673 16.7741935,14.3928571 C16.7741935,16.4147465 15.2645161,17.6129032 13.1397849,17.6129032 Z" id="S" fill="#FFFFFF"></path>
                </g>
            </g>
        </g>
    </g>
</svg>