<?xml version="1.0" encoding="utf-8"?>
<svg version="1.1" id="Layer_1" xmlns="http://www.w3.org/2000/svg" xmlns:xlink="http://www.w3.org/1999/xlink" x="0px" y="0px"
	 viewBox="0 0 80 80" style="enable-background:new 0 0 80 80;" xml:space="preserve">
<style type="text/css">
	.st0{fill:#fff;}
</style>
<g>
	<path class="st0" d="M44.6,16.9l15.3,15.3l3.5,3.5l15,15V7.7c0-3.4-2.8-6.2-6.2-6.2H58.5L44.6,15.4C44.6,15.4,43.9,16.1,44.6,16.9z"/>
	<path class="st0" d="M15.7,34.8l0.2,0.2c0.3,0.2,0.8,0.5,1.5-0.2l14.4-14.4l4.2-4.2L50.7,1.5H8.1c-3.4,0-6.2,2.8-6.2,6.2v13.2
		L15.7,34.8z"/>
	<path class="st0" d="M35.1,61.9L20.9,47.8l-4.3-4.3L1.9,28.7v43.1c0,3.4,2.8,6.2,6.2,6.2H21l14.1-14.1
		C36.1,62.9,35.1,61.9,35.1,61.9z"/>
	<path class="st0" d="M64.1,44.2c0,0-0.8-0.7-1.5,0l-17,17l-1.8,1.8L28.8,78h43.4c3.4,0,6.2-2.8,6.2-6.2V58.4L64.1,44.2z"/>
</g>
</svg>
