<?xml version="1.0" encoding="utf-8"?>
<!-- Generator: Adobe Illustrator 22.1.0, SVG Export Plug-In . SVG Version: 6.00 Build 0)  -->
<svg version="1.1" id="Layer_1" xmlns="http://www.w3.org/2000/svg" xmlns:xlink="http://www.w3.org/1999/xlink" x="0px" y="0px"
	 viewBox="0 0 130.7 25.6" style="enable-background:new 0 0 130.7 25.6;" xml:space="preserve">
<style type="text/css">
	.st0{fill:url(#Oval-2_1_);}
	.st1{fill:#9B9B9B;}
	.st2{fill:#FFFFFF;}
	.st3{enable-background:new    ;}
</style>
<title>logo</title>
<desc>Created with Sketch.</desc>
<g id="Page-1">
	<g id="Star-Admin_dashboard-new" transform="translate(-194.000000, -50.000000)">
		<g id="logo" transform="translate(194.000000, 47.000000)">
			
				<linearGradient id="Oval-2_1_" gradientUnits="userSpaceOnUse" x1="-576.9228" y1="377.7878" x2="-576.0896" y2="376.4776" gradientTransform="matrix(25 0 0 -25 14424 9442)">
				<stop  offset="5.008013e-04" style="stop-color:#005AFF"/>
				<stop  offset="1" style="stop-color:#0085FF"/>
			</linearGradient>
			<circle id="Oval-2" class="st0" cx="12.5" cy="15.5" r="12.5"/>
			<g id="Group" transform="translate(33.000000, 22.000000)">
				<g id="Shape">
					<path class="st1" d="M5.8,4.9C5.5,5.4,5.2,5.7,4.7,6S3.6,6.4,2.9,6.4H0.8V0h2.1c0.7,0,1.3,0.1,1.8,0.4S5.6,1,5.8,1.5
						c0.3,0.5,0.4,1,0.4,1.7S6.1,4.4,5.8,4.9z M4.5,4.9c0.4-0.4,0.6-1,0.6-1.7S4.9,1.9,4.5,1.5s-1-0.6-1.8-0.6h-1v4.5h1
						C3.5,5.5,4.1,5.3,4.5,4.9z"/>
					<path class="st1" d="M16.4,5h-2.7l-0.5,1.4h-1.1l2.3-6.3h1.2l2.3,6.3h-1.1L16.4,5z M16.1,4.3l-1.1-3l-1.1,3H16.1z"/>
					<path class="st1" d="M28.1,5.6c-0.1,0.3-0.4,0.5-0.7,0.6c-0.3,0.2-0.7,0.2-1.1,0.2c-0.4,0-0.8-0.1-1.2-0.2
						c-0.3-0.2-0.6-0.4-0.8-0.6c-0.2-0.3-0.3-0.6-0.4-1H25c0,0.3,0.1,0.5,0.4,0.7c0.2,0.2,0.5,0.3,0.8,0.3c0.3,0,0.6-0.1,0.7-0.3
						c0.1-0.2,0.3-0.4,0.3-0.6c0-0.2-0.1-0.4-0.2-0.6c-0.1-0.1-0.3-0.3-0.5-0.3c-0.2-0.1-0.4-0.2-0.8-0.3c-0.4-0.1-0.7-0.3-1-0.4
						c-0.3-0.1-0.5-0.3-0.6-0.5C24,2.4,24,2.1,24,1.7c0-0.3,0.1-0.6,0.3-0.9c0.2-0.3,0.4-0.5,0.7-0.6S25.7,0,26.1,0
						c0.6,0,1.2,0.2,1.5,0.5c0.4,0.3,0.6,0.7,0.7,1.2h-1.1c0-0.2-0.2-0.4-0.3-0.6s-0.4-0.3-0.8-0.3c-0.3,0-0.5,0.1-0.7,0.2
						c-0.2,0.1-0.3,0.4-0.3,0.6s0.1,0.4,0.2,0.5c0.1,0.1,0.3,0.3,0.5,0.3c0.2,0,0.4,0.2,0.8,0.3c0.4,0.1,0.7,0.3,1,0.4
						c0.3,0.1,0.5,0.3,0.6,0.6c0.2,0.2,0.3,0.6,0.3,1C28.3,5,28.3,5.3,28.1,5.6z"/>
					<polygon class="st1" points="39.8,0.1 39.8,6.5 38.8,6.5 38.8,3.6 35.8,3.6 35.8,6.5 34.8,6.5 34.8,0.1 35.8,0.1 35.8,2.8 
						38.8,2.8 38.8,0.1 					"/>
					<path class="st1" d="M50.7,3.7c0.2,0.3,0.4,0.6,0.4,1c0,0.5-0.2,0.9-0.5,1.3c-0.4,0.3-0.9,0.5-1.5,0.5h-2.5V0.1h2.5
						c0.6,0,1.1,0.1,1.5,0.4c0.3,0.3,0.5,0.7,0.5,1.2c0,0.4-0.1,0.7-0.3,1S50.3,3.1,50,3.2C50.2,3.2,50.5,3.4,50.7,3.7z M47.5,2.8
						h1.3c0.4,0,0.6-0.1,0.8-0.3c0.2-0.2,0.3-0.4,0.3-0.7s-0.1-0.5-0.3-0.7c-0.2-0.2-0.5-0.3-0.9-0.3h-1.2V2.8z M49.7,5.3
						C49.9,5.1,50,4.9,50,4.6c0-0.3-0.1-0.6-0.3-0.7c-0.2-0.2-0.5-0.3-0.9-0.3h-1.3v2h1.3C49.2,5.6,49.5,5.5,49.7,5.3z"/>
					<path class="st1" d="M62,0.4c0.5,0.3,0.9,0.7,1.1,1.2c0.3,0.5,0.4,1.1,0.4,1.7S63.4,4.5,63.1,5c-0.3,0.5-0.6,0.9-1.1,1.2
						c-0.5,0.3-1,0.4-1.6,0.4c-0.6,0-1.1-0.1-1.6-0.4c-0.5-0.3-0.9-0.7-1.1-1.2c-0.3-0.5-0.4-1.1-0.4-1.7s0.1-1.2,0.4-1.7
						s0.7-0.9,1.1-1.2c0.5-0.3,1-0.4,1.6-0.4C61,0,61.5,0.1,62,0.4z M59.3,1.2C59,1.4,58.7,1.7,58.6,2c-0.2,0.3-0.3,0.8-0.3,1.2
						c0,0.5,0.1,0.9,0.3,1.2C58.8,4.7,59,5,59.3,5.2c0.3,0.2,0.7,0.3,1.1,0.3c0.4,0,0.8-0.1,1.1-0.3c0.3-0.2,0.6-0.5,0.7-0.8
						c0.2-0.3,0.3-0.8,0.3-1.2c0-0.5-0.1-0.9-0.3-1.2s-0.4-0.6-0.7-0.8s-0.7-0.3-1.1-0.3C60,0.9,59.6,1,59.3,1.2z"/>
					<path class="st1" d="M73.7,5H71l-0.5,1.4h-1.1l2.3-6.3H73l2.3,6.3h-1.1L73.7,5z M73.4,4.3l-1.1-3l-1.1,3H73.4z"/>
					<path class="st1" d="M84.8,6.4l-1.6-2.5h-0.7v2.5h-1V0h2.2c0.7,0,1.3,0.2,1.7,0.5C85.8,0.9,86,1.3,86,1.9
						c0,0.5-0.1,0.9-0.4,1.2c-0.3,0.3-0.7,0.5-1.2,0.6l1.7,2.6L84.8,6.4L84.8,6.4z M82.5,3.2h1.1c0.8,0,1.2-0.4,1.2-1.1
						c0-0.3-0.1-0.6-0.3-0.8S84,1,83.6,1h-1.1V3.2z"/>
					<path class="st1" d="M97.3,4.9C97,5.4,96.7,5.7,96.2,6s-1.1,0.4-1.8,0.4h-2.1V0h2.1c0.7,0,1.3,0.1,1.8,0.4s0.9,0.6,1.1,1.1
						c0.3,0.5,0.4,1,0.4,1.7S97.6,4.4,97.3,4.9z M96.1,4.9c0.4-0.4,0.6-1,0.6-1.7s-0.2-1.3-0.6-1.7s-1-0.6-1.8-0.6h-1v4.5h1
						C95.1,5.5,95.6,5.3,96.1,4.9z"/>
				</g>
			</g>
			<g id="logo-copy" transform="translate(5.000000, 8.000000)">
				<path id="Shape_1_" class="st2" d="M14.4,5.1l-4.3-0.7l-1.9-4C8.2,0.2,7.9,0,7.5,0C7.2,0,6.9,0.2,6.7,0.5l-1.9,4L0.7,5.1
					C0.4,5.1,0.1,5.4,0,5.7C-0.1,6,0,6.3,0.2,6.5l3.1,3.1L2.6,14c-0.1,0.3,0.1,0.7,0.3,0.8C3.2,15,3.4,15,3.7,14.9l3.8-2l3.8,2
					c0.1,0.1,0.3,0.1,0.4,0.1c0.2,0,0.4-0.1,0.5-0.2c0.3-0.2,0.4-0.5,0.3-0.8l-0.8-4.4l3.1-3.1C15,6.3,15.1,6,15,5.7
					C15,5.3,14.7,5.1,14.4,5.1z"/>
			</g>
			<g class="st3">
				<path d="M40.6,15.5c-0.3,0.5-0.8,0.9-1.3,1.2s-1.3,0.4-2.2,0.4c-1.3,0-2.3-0.3-3.1-0.9c-0.8-0.6-1.3-1.5-1.3-2.6h2.9
					c0,0.4,0.2,0.8,0.5,1c0.3,0.2,0.6,0.4,1,0.4c0.4,0,0.6-0.1,0.8-0.3c0.2-0.2,0.3-0.4,0.3-0.8c0-0.3-0.1-0.5-0.3-0.7
					c-0.2-0.2-0.4-0.3-0.7-0.5c-0.3-0.1-0.7-0.3-1.2-0.4c-0.7-0.2-1.3-0.5-1.8-0.7c-0.5-0.2-0.8-0.6-1.2-1c-0.3-0.5-0.5-1-0.5-1.8
					c0-0.7,0.2-1.3,0.5-1.7c0.3-0.5,0.8-0.9,1.4-1.1c0.6-0.3,1.3-0.4,2.1-0.4c1.3,0,2.3,0.3,3,0.9s1.2,1.4,1.3,2.5h-3
					c-0.1-0.4-0.2-0.7-0.4-0.9c-0.2-0.2-0.5-0.3-0.9-0.3c-0.3,0-0.6,0.1-0.8,0.3c-0.2,0.2-0.3,0.4-0.3,0.8c0,0.3,0.1,0.5,0.3,0.7
					c0.2,0.2,0.4,0.3,0.7,0.5c0.3,0.1,0.7,0.3,1.2,0.4c0.7,0.2,1.3,0.5,1.8,0.7c0.5,0.2,0.9,0.6,1.2,1c0.3,0.5,0.5,1.1,0.5,1.8
					C41.1,14.4,40.9,15,40.6,15.5z"/>
				<path d="M50.7,5.7v2.2h-3.1V17h-2.8V7.9h-3V5.7H50.7z"/>
				<path d="M58.9,14.9h-4.2L53.9,17h-2.9l4.1-11.2h3.2L62.5,17h-2.9L58.9,14.9z M58.2,12.9l-1.4-4.2l-1.4,4.2H58.2z"/>
				<path d="M69.4,17l-2.4-4.3h-0.6V17h-2.7V5.7h4.7c0.9,0,1.7,0.2,2.3,0.5c0.6,0.3,1.1,0.7,1.4,1.3c0.3,0.5,0.5,1.2,0.5,1.8
					c0,0.8-0.2,1.5-0.7,2.1c-0.5,0.6-1.1,1-2,1.2l2.7,4.4H69.4z M66.3,10.9H68c0.5,0,0.9-0.1,1.2-0.4s0.4-0.6,0.4-1.1
					c0-0.4-0.1-0.8-0.4-1.1C68.9,8.1,68.5,8,68,8h-1.7V10.9z"/>
				<path d="M83.9,14.9h-4.2L79,17h-2.9l4.1-11.2h3.2L87.6,17h-2.9L83.9,14.9z M83.2,12.9l-1.4-4.2l-1.4,4.2H83.2z"/>
				<path d="M98.1,14.3c-0.5,0.9-1.2,1.5-2,2c-0.9,0.5-1.9,0.7-3.1,0.7h-4.3V5.7h4.3c1.2,0,2.3,0.2,3.2,0.7c0.9,0.5,1.6,1.1,2,2
					c0.5,0.9,0.7,1.8,0.7,2.9S98.5,13.4,98.1,14.3z M95.1,13.7c0.6-0.6,0.9-1.4,0.9-2.4c0-1-0.3-1.8-0.9-2.4
					c-0.6-0.6-1.4-0.8-2.5-0.8h-1.3v6.5h1.3C93.7,14.6,94.5,14.3,95.1,13.7z"/>
				<path d="M113.1,5.8V17h-2.7v-7l-2.4,7h-2.4l-2.4-7v7h-2.7V5.8h3.3l3.1,7.8l3-7.8H113.1z"/>
				<path d="M117.7,5.7V17h-2.7V5.7H117.7z"/>
				<path d="M129.6,17h-2.7l-4.6-6.9V17h-2.7V5.7h2.7l4.6,7v-7h2.7V17z"/>
			</g>
		</g>
	</g>
</g>
</svg>
