<svg xmlns="http://www.w3.org/2000/svg" width="146" height="33" viewBox="0 0 146 33">
    <g fill="none" fill-rule="evenodd">
        <path fill="#3152F1" fill-rule="nonzero" d="M49.695 14c-.222-1.17-1.056-1.756-2.502-1.756-.71 0-1.262.141-1.658.423-.396.283-.595.624-.595 1.023 0 .4.129.713.386.94.257.227.657.437 1.2.63l2.94 1.137c1 .385 1.772.87 2.315 1.456.542.586.813 1.32.813 2.2 0 1.213-.459 2.174-1.376 2.883-.918.71-2.225 1.064-3.921 1.064-1.502 0-2.718-.365-3.65-1.095-1.042-.799-1.591-1.928-1.647-3.388h2.44c0 1.101.577 1.797 1.73 2.086.348.097.807.145 1.377.145s1.099-.141 1.585-.424c.487-.282.73-.66.73-1.136 0-.475-.132-.84-.396-1.095s-.695-.492-1.293-.713l-2.69-1.054c-1.043-.399-1.842-.867-2.399-1.405-.556-.537-.834-1.28-.834-2.23 0-1.117.438-1.998 1.314-2.646.89-.674 2.096-1.012 3.618-1.012 1.523 0 2.697.348 3.525 1.043.827.696 1.303 1.67 1.428 2.924h-2.44zm11.908 9.463c-.918.358-1.64.537-2.169.537-.528 0-.99-.062-1.387-.186a3.146 3.146 0 0 1-1.053-.558c-.64-.565-.96-1.343-.96-2.335v-5.62h-1.417V13.67h1.418v-2.644h2.46v2.644h2.753v1.633h-2.752v5.537c0 .826.396 1.24 1.188 1.24.404 0 .925-.11 1.564-.331l.355 1.715zm5.86-5.62c.806 0 1.738.13 2.794.393v-.992c0-.703-.142-1.223-.427-1.56-.285-.338-.75-.506-1.397-.506s-1.144.127-1.491.382c-.348.255-.522.616-.522 1.085h-2.69c0-1.144.407-1.97 1.22-2.48s1.95-.764 3.41-.764c2.085 0 3.434.723 4.045 2.17.209.495.313 1.08.313 1.755v6.385H70.57l-.187-1.343C69.729 23.456 68.728 24 67.38 24c-1.307 0-2.322-.317-3.045-.95-.667-.606-1.001-1.374-1.001-2.304 0-.93.368-1.646 1.105-2.149.737-.503 1.745-.754 3.024-.754zm2.794 1.942c-.82-.22-1.584-.33-2.293-.33-1.335 0-2.003.44-2.003 1.322 0 .372.153.692.46.96.305.27.795.403 1.47.403.674 0 1.23-.223 1.668-.671.438-.448.67-1.009.698-1.684zm8.509-4.132c.612-1.446 1.53-2.17 2.753-2.17.236 0 .535.049.896.145l-.041 2.438a5.513 5.513 0 0 0-1.147-.124c-1.64 0-2.461 1.123-2.461 3.368v4.4h-2.46V13.65h2.46v2.004zm9.551 2.19c.807 0 1.738.13 2.795.393v-.992c0-.703-.143-1.223-.428-1.56-.285-.338-.75-.506-1.397-.506s-1.144.127-1.491.382c-.348.255-.521.616-.521 1.085h-2.69c0-1.144.406-1.97 1.22-2.48.813-.51 1.95-.764 3.409-.764 2.085 0 3.434.723 4.046 2.17.208.495.312 1.08.312 1.755v6.385h-2.147l-.188-1.343C90.583 23.456 89.582 24 88.234 24c-1.307 0-2.322-.317-3.045-.95-.667-.606-1-1.374-1-2.304 0-.93.368-1.646 1.104-2.149.737-.503 1.745-.754 3.024-.754zm2.795 1.942c-.82-.22-1.585-.33-2.294-.33-1.335 0-2.002.44-2.002 1.322 0 .372.153.692.459.96.305.27.795.403 1.47.403.674 0 1.23-.223 1.668-.671.438-.448.67-1.009.699-1.684zm12.658 2.376c-.625 1.226-1.585 1.839-2.878 1.839-1.293 0-2.377-.489-3.253-1.467-.904-1.02-1.355-2.314-1.355-3.884 0-1.57.43-2.845 1.292-3.823.849-.95 1.905-1.425 3.17-1.425 1.266 0 2.218.503 2.857 1.508V9.537h2.482v14.174h-2.023l-.292-1.55zm-2.565-6.57c-.695 0-1.275.279-1.741.837-.466.558-.699 1.305-.699 2.241 0 .937.237 1.691.71 2.263.472.571 1.07.857 1.793.857.598 0 1.133-.234 1.605-.702.487-.482.73-1.088.73-1.818v-1.302c-.027-.716-.27-1.302-.73-1.756-.417-.413-.973-.62-1.668-.62zm17.768-.02c.653-1.447 1.8-2.17 3.44-2.17 1.21 0 2.149.406 2.816 1.219.64.771.96 1.846.96 3.223v5.868h-2.482v-5.868c0-.744-.18-1.305-.542-1.684-.362-.379-.87-.568-1.523-.568-.653 0-1.188.282-1.606.847-.417.565-.639 1.419-.667 2.562v4.71h-2.46v-5.867c0-.744-.181-1.305-.543-1.684-.361-.379-.869-.568-1.522-.568-.654 0-1.213.29-1.679.868-.466.578-.712 1.446-.74 2.603v4.649h-2.461V13.669h2.148l.271 1.736c.667-1.336 1.738-2.004 3.212-2.004.848 0 1.553.193 2.116.578.563.386.984.916 1.262 1.591zm10.99-1.922h2.46V23.71h-2.46V13.649zm-.292-3.223c0-.441.132-.789.396-1.044.265-.255.64-.382 1.127-.382.472 0 .844.127 1.115.382s.407.603.407 1.044c0 .44-.136.788-.407 1.043-.27.255-.643.382-1.115.382-.487 0-.862-.127-1.127-.382-.264-.255-.396-.603-.396-1.043zm9.343 4.979c.667-1.336 1.738-2.004 3.211-2.004 1.252 0 2.194.406 2.826 1.219.633.813.949 1.887.949 3.223v5.868h-2.46v-5.868c0-.744-.182-1.305-.543-1.684-.361-.379-.869-.568-1.522-.568-.654 0-1.213.29-1.68.868-.465.578-.712 1.446-.74 2.603v4.649h-2.46V13.669h2.148l.27 1.736z"/>
        <g>
            <circle cx="16.5" cy="16.5" r="16.5" fill="#2B4EF0"/>
            <path fill="#FFF" fill-rule="nonzero" d="M18.487 19.157c0-.413-.147-.736-.44-.967-.292-.23-.806-.47-1.542-.717a14.802 14.802 0 0 1-1.805-.717c-1.52-.746-2.28-1.772-2.28-3.077 0-.65.19-1.224.568-1.72.379-.497.915-.884 1.607-1.16.693-.277 1.472-.416 2.337-.416.843 0 1.6.15 2.268.452.668.3 1.188.729 1.559 1.285.37.556.556 1.19.556 1.905h-2.82c0-.478-.147-.849-.44-1.112-.292-.263-.688-.395-1.188-.395-.505 0-.903.112-1.196.335-.293.223-.44.506-.44.85 0 .3.162.573.484.817.323.245.89.497 1.7.758.811.26 1.477.54 1.998.842 1.268.73 1.902 1.737 1.902 3.021 0 1.026-.387 1.832-1.16 2.417-.774.585-1.835.878-3.183.878-.95 0-1.811-.17-2.582-.511-.77-.342-1.35-.809-1.74-1.402-.39-.594-.584-1.277-.584-2.05h2.836c0 .628.162 1.09.487 1.389.325.298.853.447 1.583.447.467 0 .837-.1 1.108-.302.271-.201.407-.485.407-.85z"/>
        </g>
    </g>
</svg>
