<?xml version="1.0" encoding="UTF-8"?>
<svg width="177px" height="37px" viewBox="0 0 177 37" version="1.1" xmlns="http://www.w3.org/2000/svg" xmlns:xlink="http://www.w3.org/1999/xlink">
    <!-- Generator: Sketch 52 (66869) - http://www.bohemiancoding.com/sketch -->
    <title>Group 3</title>
    <desc>Created with Sketch.</desc>
    <g id="Symbols" stroke="none" stroke-width="1" fill="none" fill-rule="evenodd">
        <g id="SaaS-Dashboard--/-UI-Kit-/-Header" transform="translate(-631.000000, -17.000000)">
            <g id="Group-3" transform="translate(631.000000, 17.000000)">
                <path d="M60.85,15.25 C60.583332,13.8333262 59.583342,13.125 57.85,13.125 C56.9999957,13.125 56.3375024,13.2958316 55.8625,13.6375 C55.3874976,13.9791684 55.15,14.3916642 55.15,14.875 C55.15,15.3583358 55.3041651,15.7374986 55.6125,16.0125 C55.9208349,16.2875014 56.3999967,16.5416655 57.05,16.775 L60.575,18.15 C61.775006,18.616669 62.6999967,19.2041631 63.35,19.9125 C64.0000033,20.6208369 64.325,21.508328 64.325,22.575 C64.325,24.041674 63.7750055,25.2041624 62.675,26.0625 C61.5749945,26.9208376 60.0083435,27.35 57.975,27.35 C56.174991,27.35 54.7166723,26.9083378 53.6,26.025 C52.3499938,25.0583285 51.691667,23.6916755 51.625,21.925 L54.55,21.925 C54.55,23.25834 55.2416597,24.0999982 56.625,24.45 C57.0416687,24.5666672 57.5916632,24.625 58.275,24.625 C58.9583368,24.625 59.5916638,24.4541684 60.175,24.1125 C60.7583362,23.7708316 61.05,23.3125029 61.05,22.7375 C61.05,22.1624971 60.8916683,21.7208349 60.575,21.4125 C60.2583318,21.1041651 59.7416702,20.816668 59.025,20.55 L55.8,19.275 C54.5499937,18.7916642 53.59167,18.2250033 52.925,17.575 C52.25833,16.9249968 51.925,16.0250058 51.925,14.875 C51.925,13.5249933 52.4499948,12.4583372 53.5,11.675 C54.566672,10.8583292 56.0124909,10.45 57.8375,10.45 C59.6625091,10.45 61.0708284,10.8708291 62.0625,11.7125 C63.0541716,12.5541709 63.6249993,13.7333258 63.775,15.25 L60.85,15.25 Z M75.125,26.7 C74.0249945,27.1333355 73.1583365,27.35 72.525,27.35 C71.8916635,27.35 71.3375024,27.2750008 70.8625,27.125 C70.3874976,26.9749992 69.9666685,26.7500015 69.6,26.45 C68.8333295,25.7666633 68.45,24.825006 68.45,23.625 L68.45,16.825 L66.75,16.825 L66.75,14.85 L68.45,14.85 L68.45,11.65 L71.4,11.65 L71.4,14.85 L74.7,14.85 L74.7,16.825 L71.4,16.825 L71.4,23.525 C71.4,24.525005 71.8749953,25.025 72.825,25.025 C73.3083357,25.025 73.9333295,24.891668 74.7,24.625 L75.125,26.7 Z M82.15,19.9 C83.1166715,19.9 84.233327,20.0583318 85.5,20.375 L85.5,19.175 C85.5,18.3249957 85.3291684,17.6958354 84.9875,17.2875 C84.6458316,16.8791646 84.0875039,16.675 83.3125,16.675 C82.5374961,16.675 81.9416688,16.8291651 81.525,17.1375 C81.1083313,17.4458349 80.9,17.8833305 80.9,18.45 L77.675,18.45 C77.675,17.0666597 78.1624951,16.0666697 79.1375,15.45 C80.1125049,14.8333302 81.4749913,14.525 83.225,14.525 C85.7250125,14.525 87.341663,15.3999912 88.075,17.15 C88.3250013,17.750003 88.45,18.4583292 88.45,19.275 L88.45,27 L85.875,27 L85.65,25.375 C84.8666628,26.6916733 83.6666747,27.35 82.05,27.35 C80.4833255,27.35 79.266671,26.9666705 78.4,26.2 C77.599996,25.466663 77.2,24.5375056 77.2,23.4125 C77.2,22.2874944 77.6416622,21.4208364 78.525,20.8125 C79.4083378,20.2041636 80.616659,19.9 82.15,19.9 Z M85.5,22.25 C84.5166617,21.983332 83.6000042,21.85 82.75,21.85 C81.149992,21.85 80.35,22.383328 80.35,23.45 C80.35,23.9000023 80.5333315,24.2874984 80.9,24.6125 C81.2666685,24.9375016 81.8541626,25.1 82.6625,25.1 C83.4708374,25.1 84.1374974,24.8291694 84.6625,24.2875 C85.1875026,23.7458306 85.4666665,23.0666708 85.5,22.25 Z M95.7,17.25 C96.433337,15.4999913 97.533326,14.625 99,14.625 C99.2833347,14.625 99.6416645,14.6833327 100.075,14.8 L100.025,17.75 C99.558331,17.6499995 99.1000023,17.6 98.65,17.6 C96.6833235,17.6 95.7,18.9583198 95.7,21.675 L95.7,27 L92.75,27 L92.75,14.825 L95.7,14.825 L95.7,17.25 Z M107.15,19.9 C108.116671,19.9 109.233327,20.0583318 110.5,20.375 L110.5,19.175 C110.5,18.3249957 110.329168,17.6958354 109.9875,17.2875 C109.645832,16.8791646 109.087504,16.675 108.3125,16.675 C107.537496,16.675 106.941669,16.8291651 106.525,17.1375 C106.108331,17.4458349 105.9,17.8833305 105.9,18.45 L102.675,18.45 C102.675,17.0666597 103.162495,16.0666697 104.1375,15.45 C105.112505,14.8333302 106.474991,14.525 108.225,14.525 C110.725013,14.525 112.341663,15.3999912 113.075,17.15 C113.325001,17.750003 113.45,18.4583292 113.45,19.275 L113.45,27 L110.875,27 L110.65,25.375 C109.866663,26.6916733 108.666675,27.35 107.05,27.35 C105.483326,27.35 104.266671,26.9666705 103.4,26.2 C102.599996,25.466663 102.2,24.5375056 102.2,23.4125 C102.2,22.2874944 102.641662,21.4208364 103.525,20.8125 C104.408338,20.2041636 105.616659,19.9 107.15,19.9 Z M110.5,22.25 C109.516662,21.983332 108.600004,21.85 107.75,21.85 C106.149992,21.85 105.35,22.383328 105.35,23.45 C105.35,23.9000023 105.533332,24.2874984 105.9,24.6125 C106.266669,24.9375016 106.854163,25.1 107.6625,25.1 C108.470837,25.1 109.137497,24.8291694 109.6625,24.2875 C110.187503,23.7458306 110.466667,23.0666708 110.5,22.25 Z M125.675,25.125 C124.924996,26.6083407 123.775008,27.35 122.225,27.35 C120.674992,27.35 119.375005,26.7583392 118.325,25.575 C117.241661,24.3416605 116.7,22.7750095 116.7,20.875 C116.7,18.9749905 117.216662,17.4333392 118.25,16.25 C119.266672,15.0999942 120.533326,14.525 122.05,14.525 C123.566674,14.525 124.70833,15.1333273 125.475,16.35 L125.475,9.85 L128.45,9.85 L128.45,27 L126.025,27 L125.675,25.125 Z M122.6,17.175 C121.766663,17.175 121.070836,17.5124966 120.5125,18.1875 C119.954164,18.8625034 119.675,19.766661 119.675,20.9 C119.675,22.033339 119.958331,22.9458299 120.525,23.6375 C121.09167,24.3291701 121.808329,24.675 122.675,24.675 C123.39167,24.675 124.033331,24.3916695 124.6,23.825 C125.183336,23.2416638 125.475,22.5083377 125.475,21.625 L125.475,20.05 C125.441667,19.183329 125.150003,18.4750028 124.6,17.925 C124.099998,17.4249975 123.433338,17.175 122.6,17.175 Z M143.9,17.15 C144.683337,15.3999912 146.058324,14.525 148.025,14.525 C149.475007,14.525 150.599996,15.0166617 151.4,16 C152.166671,16.933338 152.55,18.233325 152.55,19.9 L152.55,27 L149.575,27 L149.575,19.9 C149.575,18.9999955 149.358336,18.3208356 148.925,17.8625 C148.491665,17.4041644 147.883337,17.175 147.1,17.175 C146.316663,17.175 145.675003,17.5166633 145.175,18.2 C144.674998,18.8833367 144.408333,19.9166598 144.375,21.3 L144.375,27 L141.425,27 L141.425,19.9 C141.425,18.9999955 141.208336,18.3208356 140.775,17.8625 C140.341665,17.4041644 139.733337,17.175 138.95,17.175 C138.166663,17.175 137.495836,17.5249965 136.9375,18.225 C136.379164,18.9250035 136.083334,19.974993 136.05,21.375 L136.05,27 L133.1,27 L133.1,14.85 L135.675,14.85 L136,16.95 C136.800004,15.3333252 138.083325,14.525 139.85,14.525 C140.866672,14.525 141.712497,14.758331 142.3875,15.225 C143.062503,15.691669 143.566665,16.3333292 143.9,17.15 Z M157.075,14.825 L160.025,14.825 L160.025,27 L157.075,27 L157.075,14.825 Z M156.725,10.925 C156.725,10.391664 156.883332,9.97083488 157.2,9.6625 C157.516668,9.35416512 157.966664,9.2 158.55,9.2 C159.11667,9.2 159.562498,9.35416512 159.8875,9.6625 C160.212502,9.97083488 160.375,10.391664 160.375,10.925 C160.375,11.458336 160.212502,11.8791651 159.8875,12.1875 C159.562498,12.4958349 159.11667,12.65 158.55,12.65 C157.966664,12.65 157.516668,12.4958349 157.2,12.1875 C156.883332,11.8791651 156.725,11.458336 156.725,10.925 Z M167.925,16.95 C168.725004,15.3333252 170.008325,14.525 171.775,14.525 C173.275008,14.525 174.404163,15.0166617 175.1625,16 C175.920837,16.9833382 176.3,18.2833252 176.3,19.9 L176.3,27 L173.35,27 L173.35,19.9 C173.35,18.9999955 173.133335,18.3208356 172.7,17.8625 C172.266664,17.4041644 171.658337,17.175 170.875,17.175 C170.091663,17.175 169.420836,17.5249965 168.8625,18.225 C168.304164,18.9250035 168.008334,19.974993 167.975,21.375 L167.975,27 L165.025,27 L165.025,14.85 L167.6,14.85 L167.925,16.95 Z" id="Staradmin" fill="#FFFFFF"></path>
                <rect id="Rectangle" fill="#FFFFFF" fill-rule="nonzero" x="0" y="0" width="37" height="37" rx="15"></rect>
                <g id="Group-2" transform="translate(9.000000, 10.000000)" fill="#027BFF" fill-rule="nonzero">
                    <rect id="Rectangle" x="0" y="13.2222222" width="17" height="3.77777778" rx="1.88888889"></rect>
                    <rect id="Rectangle-Copy" x="4.47368421" y="6.61111111" width="12.5263158" height="3.77777778" rx="1.88888889"></rect>
                    <rect id="Rectangle-Copy-2" x="10.7368421" y="0" width="6.26315789" height="3.77777778" rx="1.88888889"></rect>
                </g>
            </g>
        </g>
    </g>
</svg>