<?xml version="1.0" encoding="UTF-8"?>
<svg width="40px" height="40px" viewBox="0 0 40 40" version="1.1" xmlns="http://www.w3.org/2000/svg" xmlns:xlink="http://www.w3.org/1999/xlink">
    <!-- Generator: Sketch 53 (72520) - https://sketchapp.com -->
    <title>Group</title>
    <desc>Created with Sketch.</desc>
    <g id="Page-1" stroke="none" stroke-width="1" fill="none" fill-rule="evenodd">
        <g id="Group" fill-rule="nonzero">
            <circle id="Oval" fill="#1B45EF" cx="20" cy="20" r="20"></circle>
            <path d="M22.4082031,23.2207031 C22.4082031,22.7193985 22.230796,22.3287774 21.8759766,22.0488281 C21.5211571,21.7688788 20.8977909,21.4791682 20.0058594,21.1796875 C19.1139278,20.8802068 18.3847685,20.5904962 17.8183594,20.3105469 C15.9759022,19.4055944 15.0546875,18.1621173 15.0546875,16.5800781 C15.0546875,15.7923138 15.2841774,15.0973337 15.7431641,14.4951172 C16.2021507,13.8929006 16.8515583,13.4241553 17.6914062,13.0888672 C18.5312542,12.7535791 19.4752552,12.5859375 20.5234375,12.5859375 C21.545578,12.5859375 22.46191,12.7682273 23.2724609,13.1328125 C24.0830119,13.4973977 24.7128884,14.0165982 25.1621094,14.6904297 C25.6113304,15.3642612 25.8359375,16.1341103 25.8359375,17 L22.4179688,17 C22.4179688,16.42057 22.2405617,15.9713558 21.8857422,15.6523438 C21.5309227,15.3333317 21.0507843,15.1738281 20.4453125,15.1738281 C19.8333303,15.1738281 19.3499367,15.3089179 18.9951172,15.5791016 C18.6402977,15.8492852 18.4628906,16.1927063 18.4628906,16.609375 C18.4628906,16.9739602 18.6582012,17.3043605 19.0488281,17.6005859 C19.4394551,17.8968114 20.1262972,18.2027979 21.109375,18.5185547 C22.0924528,18.8343115 22.8997364,19.1744773 23.53125,19.5390625 C25.067716,20.4244836 25.8359375,21.6451745 25.8359375,23.2011719 C25.8359375,24.4446677 25.3671922,25.4212204 24.4296875,26.1308594 C23.4921828,26.8404983 22.2063884,27.1953125 20.5722656,27.1953125 C19.4199161,27.1953125 18.3766323,26.9886088 17.4423828,26.5751953 C16.5081333,26.1617818 15.8050154,25.5953812 15.3330078,24.8759766 C14.8610002,24.1565719 14.625,23.3281297 14.625,22.390625 L18.0625,22.390625 C18.0625,23.1523476 18.2594381,23.7138654 18.6533203,24.0751953 C19.0472025,24.4365252 19.6868445,24.6171875 20.5722656,24.6171875 C21.1386747,24.6171875 21.5862614,24.4951184 21.9150391,24.2509766 C22.2438167,24.0068347 22.4082031,23.6634137 22.4082031,23.2207031 Z" id="S" fill="#FFFFFF"></path>
        </g>
    </g>
</svg>