<?xml version="1.0" encoding="utf-8"?>
<!-- Generator: Adobe Illustrator 22.1.0, SVG Export Plug-In . SVG Version: 6.00 Build 0)  -->
<svg version="1.1" id="Layer_1" xmlns="http://www.w3.org/2000/svg" xmlns:xlink="http://www.w3.org/1999/xlink" x="0px" y="0px"
	 viewBox="0 0 223.4 28.6" style="enable-background:new 0 0 223.4 28.6;" xml:space="preserve">
<style type="text/css">
	.st0{fill:url(#SVGID_1_);}
	.st1{fill:#FFFFFF;}
</style>
<g>
	
		<linearGradient id="SVGID_1_" gradientUnits="userSpaceOnUse" x1="-14.3426" y1="-1258.7972" x2="198.2949" y2="-1258.7972" gradientTransform="matrix(1 0 0 -1 0 -1244.5182)">
		<stop  offset="0" style="stop-color:#00FFBB"/>
		<stop  offset="1" style="stop-color:#05BDBA"/>
	</linearGradient>
	<path class="st0" d="M27,9.8l-8-1.2l-3.5-7.6C15.3,0.4,14.8,0,14.1,0c-0.5,0-1.1,0.4-1.4,0.9L9.1,8.5L1.3,9.8
		c-0.5,0-1.1,0.5-1.2,1.1s0,1.2,0.4,1.6l5.9,5.9l-1.4,8.3c-0.2,0.5,0.2,1.2,0.5,1.6c0.5,0.4,1.1,0.4,1.6,0.2l7.1-3.9l7.1,3.9
		c0.2,0.2,0.5,0.2,0.7,0.2c0.4,0,0.7-0.2,0.9-0.4c0.5-0.4,0.7-0.9,0.5-1.6l-1.4-8.3l5.9-5.9c0.4-0.4,0.5-1.1,0.4-1.6
		C28.1,10.1,27.6,9.8,27,9.8z"/>
</g>
<g>
	<path class="st1" d="M42.6,13.7c0-1.6,0.7-3,2.1-4.3c1.4-1.1,3.2-1.8,5.5-1.8s4.1,0.5,5.3,1.8c1.4,1.1,2.1,2.7,2.1,4.6h-4.1
		c0-0.9-0.4-1.8-1.1-2.3c-0.5-0.5-1.4-0.9-2.5-0.9c-1.1,0-2,0.2-2.5,0.7c-0.5,0.5-0.9,1.1-0.9,2c0,0.7,0.4,1.4,1.2,1.8
		c0.7,0.5,1.8,0.7,2.8,1.1c1.1,0.2,2.3,0.5,3.4,0.7c1.1,0.4,2.1,0.9,2.8,1.8c0.7,0.9,1.2,2,1.2,3.4c0,1.8-0.7,3-2.1,4.1
		c-1.4,1.1-3.2,1.6-5.5,1.6s-4.1-0.5-5.5-1.6c-1.4-1.1-2.1-2.7-2.3-4.6h4.3c0,0.9,0.4,1.8,1.1,2.3s1.4,0.9,2.7,0.9
		c1.2,0,2-0.2,2.7-0.7c0.7-0.5,1.1-1.1,1.1-2c0-0.9-0.4-1.4-1.2-2c-0.7-0.5-1.8-0.7-2.8-1.1c-1.1-0.2-2.3-0.5-3.4-0.7
		c-1.1-0.4-2.1-0.9-2.8-1.6C43,16,42.6,14.9,42.6,13.7z"/>
	<path class="st1" d="M71.9,11.4h-4.8v10.8c0,0.7,0.2,1.2,0.5,1.6c0.4,0.4,0.9,0.5,1.8,0.5h2.5v3.4h-3.2c-3.7,0-5.7-1.8-5.7-5.5
		V11.4h-2.3V8H63V3.2h4.1V8h4.8V11.4z"/>
	<path class="st1" d="M77.1,25c-1.8-2-2.7-4.3-2.7-7.3s0.9-5.3,2.7-7.3c1.8-1.8,3.9-2.8,6.6-2.8c1.6,0,2.8,0.4,4.1,1.1
		s2.1,1.6,2.7,2.7V7.8h4.1v19.5h-4.1v-3.4c-0.7,1.2-1.6,2.1-2.7,2.8c-1.2,0.7-2.5,1.1-4.1,1.1C81,27.8,78.8,27,77.1,25z M88.6,22.5
		c1.2-1.2,1.8-2.8,1.8-4.8s-0.5-3.5-1.8-4.8s-2.5-1.8-4.1-1.8c-1.6,0-3,0.5-4.1,1.8s-1.8,2.7-1.8,4.8c0,2,0.5,3.5,1.8,4.8
		c1.2,1.2,2.5,1.8,4.1,1.8C85.9,24.5,87.3,23.8,88.6,22.5z"/>
	<path class="st1" d="M103.8,8v3.5c1.2-2.5,3.2-3.7,5.9-3.7v4.3h-1.1c-1.6,0-2.8,0.4-3.5,1.2s-1.2,2.1-1.2,4.3v10.3h-4.1V8H103.8z"
		/>
	<path class="st1" d="M130.3,27.7l-2-5.3h-11l-2,5.3H112L120.9,3h3.5l8.9,24.7H130.3z M118.4,19.7h9l-4.6-12.8L118.4,19.7z"/>
	<path class="st1" d="M139.3,25c-1.8-2-2.7-4.3-2.7-7.3s0.9-5.3,2.7-7.3c1.8-1.8,3.9-2.8,6.7-2.8c1.6,0,3.2,0.4,4.4,1.2
		c1.2,0.9,2.1,1.8,2.8,3V1.2h3.2v26.3h-3.2v-3.9c-0.7,1.2-1.6,2.3-2.8,3.2c-1.2,0.7-2.7,1.2-4.4,1.2C143.2,27.8,141.1,27,139.3,25z
		 M151,23.2c1.2-1.2,2-3,2-5.3c0-2.1-0.7-3.9-2-5.3c-1.2-1.2-2.8-2-4.6-2s-3.4,0.7-4.6,2c-1.2,1.2-2,3-2,5.1s0.7,3.9,2,5.3
		c1.2,1.4,2.8,2.1,4.6,2.1C148.4,25.2,149.8,24.5,151,23.2z"/>
	<path class="st1" d="M164.9,8.2v3.2c1.2-2.3,3.4-3.5,6.4-3.5c1.4,0,2.8,0.4,4.1,1.1c1.2,0.7,2.1,1.8,2.7,3.2c0.7-1.2,1.6-2.3,2.8-3
		c1.2-0.7,2.7-1.1,4.3-1.1c2.1,0,4.1,0.7,5.5,2.1s2.1,3.5,2.1,6.2v11.5h-3.2v-11c0-2-0.5-3.4-1.4-4.4s-2.3-1.6-3.9-1.6
		s-3,0.5-3.9,1.6s-1.4,2.5-1.4,4.4v11h-3.2v-11c0-2-0.5-3.4-1.4-4.4s-2.3-1.6-3.9-1.6s-3,0.5-3.9,1.6s-1.4,2.5-1.4,4.4v11h-3.2V8.3
		L164.9,8.2L164.9,8.2z"/>
	<path class="st1" d="M201,4.4c-0.4,0.4-0.9,0.7-1.6,0.7c-0.7,0-1.1-0.2-1.6-0.7c-0.4-0.4-0.5-0.9-0.5-1.6s0.2-1.1,0.7-1.6
		c0.4-0.4,0.9-0.7,1.6-0.7c0.7,0,1.1,0.2,1.6,0.7c0.4,0.4,0.7,0.9,0.7,1.6S201.4,3.9,201,4.4z M197.8,27.7V8.2h3.2v19.5H197.8z"/>
	<path class="st1" d="M209.6,8.2v3.2c1.2-2.3,3.4-3.5,6.4-3.5c2.1,0,3.9,0.7,5.3,2.1s2.1,3.5,2.1,6.2v11.5h-3.2v-11
		c0-2-0.5-3.4-1.4-4.4s-2.3-1.6-3.9-1.6s-3,0.5-3.9,1.6s-1.4,2.5-1.4,4.4v11h-3.2V8.2C206.4,8.2,209.6,8.2,209.6,8.2z"/>
</g>
</svg>
