<?xml version="1.0" encoding="UTF-8"?>
<svg width="157px" height="21px" viewBox="0 0 157 21" version="1.1" xmlns="http://www.w3.org/2000/svg" xmlns:xlink="http://www.w3.org/1999/xlink">
    <!-- Generator: Sketch 53 (72520) - https://sketchapp.com -->
    <title>Group</title>
    <desc>Created with Sketch.</desc>
    <g id="Symbols" stroke="none" stroke-width="1" fill="none" fill-rule="evenodd">
        <g id="Modern-dashboard-/-leftmenu" transform="translate(-39.000000, -28.000000)">
            <g id="Group" transform="translate(39.000000, 28.000000)">
                <g id="Group-2">
                    <path d="M0,0 L10.5,0 C16.2989899,-1.06525716e-15 21,4.70101013 21,10.5 L21,10.5 C21,16.2989899 16.2989899,21 10.5,21 L0,21 L0,0 Z" id="Rectangle" fill="#00E196"></path>
                    <g id="Group-10" transform="translate(6.500000, 6.000000) scale(-1, 1) translate(-6.500000, -6.000000) ">
                        <rect id="Rectangle" fill="#0400AC" transform="translate(3.000000, 3.000000) scale(-1, 1) translate(-3.000000, -3.000000) " x="0" y="0" width="6" height="6"></rect>
                        <rect id="Rectangle-Copy-58" fill="#0400AC" transform="translate(9.500000, 9.000000) scale(-1, 1) translate(-9.500000, -9.000000) " x="6" y="6" width="7" height="6"></rect>
                        <rect id="Rectangle-Copy-59" fill="#FF0283" transform="translate(9.500000, 3.000000) scale(-1, 1) translate(-9.500000, -3.000000) " x="6" y="0" width="7" height="6"></rect>
                    </g>
                </g>
                <path d="M39.5,20.25 C38.299994,20.25 37.233338,20.1000015 36.3,19.8 C35.366662,19.4999985 34.4916707,18.9916702 33.675,18.275 C33.2249977,17.874998 33,17.4333357 33,16.95 C33,16.5666648 33.1416652,16.2291681 33.425,15.9375 C33.7083347,15.6458319 34.049998,15.5 34.45,15.5 C34.7666682,15.5 35.0499987,15.599999 35.3,15.8 C35.96667,16.3500027 36.6166635,16.7499988 37.25,17 C37.8833365,17.2500012 38.633329,17.375 39.5,17.375 C40.433338,17.375 41.2374966,17.1666687 41.9125,16.75 C42.5875034,16.3333313 42.925,15.8166697 42.925,15.2 C42.925,14.4499962 42.59167,13.8625021 41.925,13.4375 C41.25833,13.0124979 40.2000072,12.6916677 38.75,12.475 C35.0999817,11.941664 33.275,10.241681 33.275,7.375 C33.275,6.32499475 33.5499972,5.41250387 34.1,4.6375 C34.6500027,3.86249613 35.3999952,3.27083537 36.35,2.8625 C37.3000047,2.45416463 38.3583275,2.25 39.525,2.25 C40.5750052,2.25 41.5624954,2.40833175 42.4875,2.725 C43.4125046,3.04166825 44.1833302,3.45833075 44.8,3.975 C45.2833357,4.35833525 45.525,4.7999975 45.525,5.3 C45.525,5.68333525 45.3833347,6.02083187 45.1,6.3125 C44.8166652,6.60416813 44.4833352,6.75 44.1,6.75 C43.8499987,6.75 43.625001,6.67500075 43.425,6.525 C42.9916645,6.17499825 42.3875039,5.85416813 41.6125,5.5625 C40.8374961,5.27083187 40.1416697,5.125 39.525,5.125 C38.4749947,5.125 37.6625029,5.32083137 37.0875,5.7125 C36.5124971,6.10416862 36.225,6.6166635 36.225,7.25 C36.225,7.96667025 36.5208304,8.5083315 37.1125,8.875 C37.7041696,9.2416685 38.633327,9.5416655 39.9,9.775 C41.3333405,10.0250013 42.4791624,10.3458314 43.3375,10.7375 C44.1958376,11.1291686 44.8416645,11.6624966 45.275,12.3375 C45.7083355,13.0125034 45.925,13.9083278 45.925,15.025 C45.925,16.0750053 45.6291696,16.9958294 45.0375,17.7875 C44.4458304,18.5791706 43.6583382,19.1874979 42.675,19.6125 C41.6916617,20.0375021 40.633339,20.25 39.5,20.25 Z M55,17.175 C55.2333345,17.175 55.4458324,17.2874989 55.6375,17.5125 C55.8291676,17.7375011 55.925,18.0333315 55.925,18.4 C55.925,18.8500022 55.6791691,19.2291651 55.1875,19.5375 C54.6958309,19.8458349 54.1416697,20 53.525,20 C52.4916615,20 51.6208369,19.7791689 50.9125,19.3375 C50.2041631,18.8958311 49.85,17.9583405 49.85,16.525 L49.85,9.625 L48.7,9.625 C48.299998,9.625 47.966668,9.491668 47.7,9.225 C47.433332,8.958332 47.3,8.625002 47.3,8.225 C47.3,7.84166475 47.433332,7.52083462 47.7,7.2625 C47.966668,7.00416537 48.299998,6.875 48.7,6.875 L49.85,6.875 L49.85,5.275 C49.85,4.8416645 49.9958319,4.47916813 50.2875,4.1875 C50.5791681,3.89583187 50.9416645,3.75 51.375,3.75 C51.7916687,3.75 52.1416652,3.89583187 52.425,4.1875 C52.7083347,4.47916813 52.85,4.8416645 52.85,5.275 L52.85,6.875 L54.625,6.875 C55.025002,6.875 55.358332,7.008332 55.625,7.275 C55.891668,7.541668 56.025,7.874998 56.025,8.275 C56.025,8.65833525 55.891668,8.97916538 55.625,9.2375 C55.358332,9.49583463 55.025002,9.625 54.625,9.625 L52.85,9.625 L52.85,16.4 C52.85,16.7500017 52.9416657,17.0041659 53.125,17.1625 C53.3083342,17.3208341 53.5583317,17.4 53.875,17.4 C54.008334,17.4 54.1916655,17.366667 54.425,17.3 C54.625001,17.2166663 54.8166657,17.175 55,17.175 Z M69.6,6.375 C70.0333355,6.375 70.3916652,6.51666525 70.675,6.8 C70.9583347,7.08333475 71.1,7.44999775 71.1,7.9 L71.1,18.475 C71.1,18.9083355 70.9583347,19.2708319 70.675,19.5625 C70.3916652,19.8541681 70.0333355,20 69.6,20 C69.1666645,20 68.8125014,19.8583348 68.5375,19.575 C68.2624986,19.2916652 68.1166667,18.9333355 68.1,18.5 C67.6833312,18.9833358 67.1208369,19.3958316 66.4125,19.7375 C65.7041631,20.0791684 64.9583372,20.25 64.175,20.25 C63.0249942,20.25 61.983338,19.9541696 61.05,19.3625 C60.116662,18.7708304 59.3791694,17.9500053 58.8375,16.9 C58.2958306,15.8499948 58.025,14.65834 58.025,13.325 C58.025,11.99166 58.291664,10.7958386 58.825,9.7375 C59.358336,8.67916138 60.0874954,7.85416962 61.0125,7.2625 C61.9375046,6.67083038 62.9583277,6.375 64.075,6.375 C64.875004,6.375 65.6249965,6.52083187 66.325,6.8125 C67.0250035,7.10416813 67.6166642,7.47499775 68.1,7.925 L68.1,7.9 C68.1,7.4666645 68.2416652,7.10416813 68.525,6.8125 C68.8083347,6.52083187 69.1666645,6.375 69.6,6.375 Z M64.55,17.5 C65.6333387,17.5 66.5166632,17.1041706 67.2,16.3125 C67.8833367,15.5208294 68.225,14.525006 68.225,13.325 C68.225,12.124994 67.8833367,11.125004 67.2,10.325 C66.5166632,9.524996 65.6333387,9.125 64.55,9.125 C63.483328,9.125 62.6083367,9.524996 61.925,10.325 C61.2416632,11.125004 60.9,12.124994 60.9,13.325 C60.9,14.525006 61.2374966,15.5208294 61.9125,16.3125 C62.5875034,17.1041706 63.4666612,17.5 64.55,17.5 Z M81.3,6.375 C81.8000025,6.375 82.2208316,6.51666525 82.5625,6.8 C82.9041684,7.08333475 83.075,7.41666475 83.075,7.8 C83.075,8.31666925 82.941668,8.70416538 82.675,8.9625 C82.408332,9.22083463 82.0916685,9.35 81.725,9.35 C81.4749987,9.35 81.1916682,9.29166725 80.875,9.175 C80.8249997,9.15833325 80.7125009,9.12500025 80.5375,9.075 C80.3624991,9.02499975 80.175001,9 79.975,9 C79.5416645,9 79.125002,9.133332 78.725,9.4 C78.324998,9.666668 77.9958346,10.0708306 77.7375,10.6125 C77.4791654,11.1541694 77.35,11.7999962 77.35,12.55 L77.35,18.475 C77.35,18.9083355 77.2083347,19.2708319 76.925,19.5625 C76.6416652,19.8541681 76.2833355,20 75.85,20 C75.4166645,20 75.0583347,19.8541681 74.775,19.5625 C74.4916652,19.2708319 74.35,18.9083355 74.35,18.475 L74.35,8.15 C74.35,7.7166645 74.4916652,7.35416813 74.775,7.0625 C75.0583347,6.77083187 75.4166645,6.625 75.85,6.625 C76.2833355,6.625 76.6416652,6.77083187 76.925,7.0625 C77.2083347,7.35416813 77.35,7.7166645 77.35,8.15 L77.35,8.475 C77.7333352,7.79166325 78.2833297,7.27083512 79,6.9125 C79.7166702,6.55416487 80.4833292,6.375 81.3,6.375 Z M95.725,6.375 C96.1583355,6.375 96.5166652,6.51666525 96.8,6.8 C97.0833347,7.08333475 97.225,7.44999775 97.225,7.9 L97.225,18.475 C97.225,18.9083355 97.0833347,19.2708319 96.8,19.5625 C96.5166652,19.8541681 96.1583355,20 95.725,20 C95.2916645,20 94.9375014,19.8583348 94.6625,19.575 C94.3874986,19.2916652 94.2416667,18.9333355 94.225,18.5 C93.8083312,18.9833358 93.2458369,19.3958316 92.5375,19.7375 C91.8291631,20.0791684 91.0833372,20.25 90.3,20.25 C89.1499942,20.25 88.108338,19.9541696 87.175,19.3625 C86.241662,18.7708304 85.5041694,17.9500053 84.9625,16.9 C84.4208306,15.8499948 84.15,14.65834 84.15,13.325 C84.15,11.99166 84.416664,10.7958386 84.95,9.7375 C85.483336,8.67916138 86.2124954,7.85416962 87.1375,7.2625 C88.0625046,6.67083038 89.0833277,6.375 90.2,6.375 C91.000004,6.375 91.7499965,6.52083187 92.45,6.8125 C93.1500035,7.10416813 93.7416642,7.47499775 94.225,7.925 L94.225,7.9 C94.225,7.4666645 94.3666652,7.10416813 94.65,6.8125 C94.9333347,6.52083187 95.2916645,6.375 95.725,6.375 Z M90.675,17.5 C91.7583387,17.5 92.6416632,17.1041706 93.325,16.3125 C94.0083367,15.5208294 94.35,14.525006 94.35,13.325 C94.35,12.124994 94.0083367,11.125004 93.325,10.325 C92.6416632,9.524996 91.7583387,9.125 90.675,9.125 C89.608328,9.125 88.7333367,9.524996 88.05,10.325 C87.3666632,11.125004 87.025,12.124994 87.025,13.325 C87.025,14.525006 87.3624966,15.5208294 88.0375,16.3125 C88.7125034,17.1041706 89.5916612,17.5 90.675,17.5 Z M111.3,1.5 C111.733335,1.5 112.091665,1.64166525 112.375,1.925 C112.658335,2.20833475 112.8,2.57499775 112.8,3.025 L112.8,18.475 C112.8,18.9083355 112.658335,19.2708319 112.375,19.5625 C112.091665,19.8541681 111.733335,20 111.3,20 C110.866664,20 110.512501,19.8583348 110.2375,19.575 C109.962499,19.2916652 109.816667,18.9333355 109.8,18.5 C109.383331,18.9833358 108.820837,19.3958316 108.1125,19.7375 C107.404163,20.0791684 106.658337,20.25 105.875,20.25 C104.724994,20.25 103.683338,19.9541696 102.75,19.3625 C101.816662,18.7708304 101.079169,17.9500053 100.5375,16.9 C99.9958306,15.8499948 99.725,14.65834 99.725,13.325 C99.725,11.99166 99.991664,10.7958386 100.525,9.7375 C101.058336,8.67916138 101.787495,7.85416962 102.7125,7.2625 C103.637505,6.67083038 104.658328,6.375 105.775,6.375 C106.575004,6.375 107.324996,6.52083187 108.025,6.8125 C108.725003,7.10416813 109.316664,7.47499775 109.8,7.925 L109.8,3.025 C109.8,2.5916645 109.941665,2.22916813 110.225,1.9375 C110.508335,1.64583187 110.866664,1.5 111.3,1.5 Z M106.25,17.5 C107.333339,17.5 108.216663,17.1041706 108.9,16.3125 C109.583337,15.5208294 109.925,14.525006 109.925,13.325 C109.925,12.124994 109.583337,11.125004 108.9,10.325 C108.216663,9.524996 107.333339,9.125 106.25,9.125 C105.183328,9.125 104.308337,9.524996 103.625,10.325 C102.941663,11.125004 102.6,12.124994 102.6,13.325 C102.6,14.525006 102.937497,15.5208294 103.6125,16.3125 C104.287503,17.1041706 105.166661,17.5 106.25,17.5 Z M131.475,6.375 C133.125008,6.375 134.266663,6.87916162 134.9,7.8875 C135.533336,8.89583837 135.85,10.2916578 135.85,12.075 L135.85,18.475 C135.85,18.9083355 135.708335,19.2708319 135.425,19.5625 C135.141665,19.8541681 134.783335,20 134.35,20 C133.916664,20 133.558335,19.8541681 133.275,19.5625 C132.991665,19.2708319 132.85,18.9083355 132.85,18.475 L132.85,12.075 C132.85,11.1583288 132.670835,10.4375026 132.3125,9.9125 C131.954165,9.38749737 131.325004,9.125 130.425,9.125 C129.491662,9.125 128.762503,9.40416387 128.2375,9.9625 C127.712497,10.5208361 127.45,11.2249958 127.45,12.075 L127.45,18.475 C127.45,18.9083355 127.308335,19.2708319 127.025,19.5625 C126.741665,19.8541681 126.383335,20 125.95,20 C125.516664,20 125.158335,19.8541681 124.875,19.5625 C124.591665,19.2708319 124.45,18.9083355 124.45,18.475 L124.45,12.075 C124.45,11.1583288 124.270835,10.4375026 123.9125,9.9125 C123.554165,9.38749737 122.925004,9.125 122.025,9.125 C121.091662,9.125 120.362503,9.40416387 119.8375,9.9625 C119.312497,10.5208361 119.05,11.2249958 119.05,12.075 L119.05,18.475 C119.05,18.9083355 118.908335,19.2708319 118.625,19.5625 C118.341665,19.8541681 117.983335,20 117.55,20 C117.116664,20 116.758335,19.8541681 116.475,19.5625 C116.191665,19.2708319 116.05,18.9083355 116.05,18.475 L116.05,8.15 C116.05,7.7166645 116.191665,7.35416813 116.475,7.0625 C116.758335,6.77083187 117.116664,6.625 117.55,6.625 C117.983335,6.625 118.341665,6.77083187 118.625,7.0625 C118.908335,7.35416813 119.05,7.7166645 119.05,8.15 L119.05,8.55 C119.500002,7.949997 120.07083,7.43750212 120.7625,7.0125 C121.45417,6.58749787 122.224996,6.375 123.075,6.375 C125.17501,6.375 126.516664,7.2916575 127.1,9.125 C127.483335,8.4249965 128.062496,7.7916695 128.8375,7.225 C129.612504,6.6583305 130.491662,6.375 131.475,6.375 Z M141.925,18.475 C141.925,18.9083355 141.783335,19.2708319 141.5,19.5625 C141.216665,19.8541681 140.858335,20 140.425,20 C139.991664,20 139.633335,19.8541681 139.35,19.5625 C139.066665,19.2708319 138.925,18.9083355 138.925,18.475 L138.925,8.15 C138.925,7.7166645 139.066665,7.35416813 139.35,7.0625 C139.633335,6.77083187 139.991664,6.625 140.425,6.625 C140.858335,6.625 141.216665,6.77083187 141.5,7.0625 C141.783335,7.35416813 141.925,7.7166645 141.925,8.15 L141.925,18.475 Z M140.4,5 C139.83333,5 139.433334,4.90833425 139.2,4.725 C138.966665,4.54166575 138.85,4.216669 138.85,3.75 L138.85,3.275 C138.85,2.808331 138.974999,2.48333425 139.225,2.3 C139.475001,2.11666575 139.874997,2.025 140.425,2.025 C141.008336,2.025 141.416665,2.11666575 141.65,2.3 C141.883334,2.48333425 142,2.808331 142,3.275 L142,3.75 C142,4.23333575 141.879168,4.56249913 141.6375,4.7375 C141.395832,4.91250088 140.983336,5 140.4,5 Z M152.15,6.375 C153.850008,6.375 155.024997,6.87916162 155.675,7.8875 C156.325003,8.89583837 156.65,10.2916578 156.65,12.075 L156.65,18.475 C156.65,18.9083355 156.508335,19.2708319 156.225,19.5625 C155.941665,19.8541681 155.583335,20 155.15,20 C154.716664,20 154.358335,19.8541681 154.075,19.5625 C153.791665,19.2708319 153.65,18.9083355 153.65,18.475 L153.65,12.075 C153.65,11.1583288 153.458335,10.4375026 153.075,9.9125 C152.691665,9.38749737 152.033338,9.125 151.1,9.125 C150.133328,9.125 149.375003,9.40416387 148.825,9.9625 C148.274997,10.5208361 148,11.2249958 148,12.075 L148,18.475 C148,18.9083355 147.858335,19.2708319 147.575,19.5625 C147.291665,19.8541681 146.933335,20 146.5,20 C146.066664,20 145.708335,19.8541681 145.425,19.5625 C145.141665,19.2708319 145,18.9083355 145,18.475 L145,8.15 C145,7.7166645 145.141665,7.35416813 145.425,7.0625 C145.708335,6.77083187 146.066664,6.625 146.5,6.625 C146.933335,6.625 147.291665,6.77083187 147.575,7.0625 C147.858335,7.35416813 148,7.7166645 148,8.15 L148,8.575 C148.450002,7.974997 149.037496,7.4583355 149.7625,7.025 C150.487504,6.5916645 151.283329,6.375 152.15,6.375 Z" id="Staradmin" fill="#3F4257" fill-rule="nonzero"></path>
            </g>
        </g>
    </g>
</svg>