<?xml version="1.0" encoding="UTF-8"?>
<svg width="124px" height="21px" viewBox="0 0 124 21" version="1.1" xmlns="http://www.w3.org/2000/svg" xmlns:xlink="http://www.w3.org/1999/xlink">
    <!-- Generator: Sketch 53 (72520) - https://sketchapp.com -->
    <title>Staradmin</title>
    <desc>Created with Sketch.</desc>
    <g id="Dashboard" stroke="none" stroke-width="1" fill="none" fill-rule="evenodd">
        <path d="M0.892089844,12.9199219 C0.997884644,14.8974708 1.40885059,16.5047139 2.125,17.7416992 C2.84114941,18.9786846 3.94384021,19.597168 5.43310547,19.597168 C6.36084448,19.597168 7.09325903,19.3815126 7.63037109,18.9501953 C8.16748315,18.5188781 8.43603516,17.9207395 8.43603516,17.1557617 C8.43603516,16.4965787 8.28751776,15.9045436 7.99047852,15.3796387 C7.69343927,14.8547337 7.29264575,14.3745953 6.78808594,13.939209 C6.28352612,13.5038227 5.61621509,13.0094429 4.78613281,12.4560547 C3.77701318,11.7805956 2.97746063,11.1946639 2.38745117,10.6982422 C1.79744171,10.2018204 1.30916534,9.62199225 0.922607422,8.95874023 C0.5360495,8.29548822 0.342773438,7.5325564 0.342773438,6.66992188 C0.342773438,5.62825 0.625566833,4.75138702 1.19116211,4.03930664 C1.75675739,3.32722626 2.5074823,2.80029468 3.44335938,2.45849609 C4.37923645,2.11669751 5.40868579,1.94580078 6.53173828,1.94580078 C7.49202954,1.94580078 8.26920276,2.03531812 8.86328125,2.21435547 C9.45735974,2.39339282 10.0310845,2.63753101 10.5844727,2.94677734 C10.8204764,3.07698633 10.9954421,3.16853815 11.109375,3.22143555 C11.2233079,3.27433295 11.33317,3.30078125 11.4389648,3.30078125 C11.593588,3.30078125 11.7115881,3.2132984 11.7929688,3.03833008 C11.8743494,2.86336176 11.9394529,2.58463733 11.9882812,2.20214844 L12.5620117,2.20214844 C12.4806311,3.39844348 12.4399414,5.43292834 12.4399414,8.30566406 L11.8662109,8.30566406 C11.8011064,7.35351086 11.5834166,6.44206165 11.2131348,5.57128906 C10.842853,4.70051648 10.3403352,3.99251575 9.70556641,3.44726562 C9.07079761,2.9020155 8.33838306,2.62939453 7.50830078,2.62939453 C6.75146106,2.62939453 6.13704663,2.83284302 5.66503906,3.23974609 C5.19303149,3.64664917 4.95703125,4.21630493 4.95703125,4.94873047 C4.95703125,5.55094702 5.09741071,6.06770618 5.37817383,6.49902344 C5.65893695,6.9303407 6.04548907,7.33723767 6.5378418,7.71972656 C7.03019452,8.10221545 7.97216101,8.77766443 9.36376953,9.74609375 C10.2833705,10.3890006 11.015785,10.9525529 11.5610352,11.4367676 C12.1062853,11.9209822 12.5518375,12.4886035 12.8977051,13.1396484 C13.2435727,13.7906934 13.4165039,14.5434528 13.4165039,15.3979492 C13.4165039,16.4803114 13.1113312,17.3937951 12.5009766,18.1384277 C11.8906219,18.8830604 11.072759,19.4384747 10.0473633,19.8046875 C9.02196753,20.1709003 7.87858704,20.3540039 6.6171875,20.3540039 C5.59179175,20.3540039 4.74341156,20.27059 4.07202148,20.1037598 C3.40063141,19.9369295 2.77197559,19.7111017 2.18603516,19.4262695 C1.81168433,19.1902657 1.53092542,19.0722656 1.34375,19.0722656 C1.18912683,19.0722656 1.07112671,19.157714 0.989746094,19.3286133 C0.908365479,19.4995126 0.839192993,19.7802715 0.782226562,20.1708984 L0.208496094,20.1708984 C0.281738647,18.9013608 0.318359375,16.4843928 0.318359375,12.9199219 L0.892089844,12.9199219 Z M23.0722656,7.04833984 L23.0722656,7.54882812 L20.6186523,7.54882812 L20.6186523,17.9003906 C20.6186523,18.2259131 20.6756179,18.4578444 20.7895508,18.5961914 C20.9034836,18.7345385 21.0987942,18.8037109 21.3754883,18.8037109 C21.5789398,18.8037109 21.8027332,18.7447109 22.046875,18.626709 C22.2910168,18.5087071 22.5148102,18.323569 22.7182617,18.0712891 L23.0966797,18.3764648 C22.3317019,19.6948308 21.1476317,20.3540039 19.5444336,20.3540039 C18.3969669,20.3540039 17.5384143,20.069176 16.96875,19.4995117 C16.6269514,19.1577131 16.3990891,18.7264023 16.2851562,18.2055664 C16.1712234,17.6847305 16.1142578,16.9563849 16.1142578,16.0205078 L16.1142578,7.54882812 L14.222168,7.54882812 L14.222168,7.04833984 L16.1142578,7.04833984 L16.1142578,4.06982422 C17.0175826,4.06982422 17.8313766,3.98234137 18.5556641,3.80737305 C19.2799515,3.63240472 19.9676074,3.3536803 20.6186523,2.97119141 L20.6186523,7.04833984 L23.0722656,7.04833984 Z M30.262207,9.22119141 C30.262207,8.69221741 30.1299655,8.21818243 29.8654785,7.79907227 C29.6009915,7.3799621 29.1147496,7.17041016 28.4067383,7.17041016 C28.1951487,7.17041016 27.9693209,7.21109985 27.729248,7.29248047 C27.4891752,7.37386108 27.2755543,7.47558533 27.0883789,7.59765625 C28.2032933,8.01269739 28.7607422,8.76545679 28.7607422,9.85595703 C28.7607422,10.246584 28.6610524,10.6005844 28.4616699,10.9179688 C28.2622874,11.2353531 27.979494,11.4876293 27.6132812,11.6748047 C27.2470685,11.8619801 26.8279646,11.9555664 26.355957,11.9555664 C25.949054,11.9555664 25.5909846,11.8599456 25.2817383,11.6687012 C24.9724919,11.4774567 24.7324227,11.2150082 24.5615234,10.8813477 C24.3906241,10.5476871 24.3051758,10.1774109 24.3051758,9.77050781 C24.3051758,9.265948 24.4455552,8.82039581 24.7263184,8.43383789 C25.0070815,8.04727997 25.3834612,7.72786584 25.8554688,7.47558594 C26.9052787,6.93847388 28.2399008,6.66992188 29.859375,6.66992188 C30.8115282,6.66992188 31.6171842,6.76147369 32.2763672,6.94458008 C32.9355502,7.12768646 33.4889301,7.45523853 33.9365234,7.92724609 C34.2620459,8.26904468 34.4797358,8.70238995 34.5895996,9.22729492 C34.6994634,9.75219989 34.7543945,10.4866489 34.7543945,11.4306641 L34.7543945,18.1201172 C34.7543945,18.5188822 34.7828773,18.7976066 34.8398438,18.9562988 C34.8968102,19.114991 34.9944655,19.1943359 35.1328125,19.1943359 C35.2630215,19.1943359 35.3830561,19.1638187 35.4929199,19.1027832 C35.6027838,19.0417477 35.7431632,18.9501959 35.9140625,18.828125 L36.1582031,19.2553711 C35.7675762,19.5808936 35.3118516,19.8148593 34.7910156,19.9572754 C34.2701797,20.0996915 33.6435583,20.1708984 32.9111328,20.1708984 C32.0322222,20.1708984 31.3872905,19.9938983 30.9763184,19.6398926 C30.5653463,19.2858869 30.3517253,18.8321968 30.3354492,18.2788086 C29.9855126,18.856611 29.4931672,19.3164045 28.8583984,19.6582031 C28.2236296,20.0000017 27.5237668,20.1708984 26.7587891,20.1708984 C25.7740836,20.1708984 25.0030139,19.9104844 24.4455566,19.3896484 C23.8880994,18.8688125 23.609375,18.1730187 23.609375,17.3022461 C23.609375,16.4477496 23.8657201,15.7356799 24.378418,15.1660156 C24.8911158,14.5963513 25.6927029,14.1324888 26.7832031,13.7744141 C27.6702518,13.4570297 28.3273904,13.206788 28.7546387,13.0236816 C29.1818869,12.8405753 29.5399562,12.6208509 29.8288574,12.364502 C30.1177586,12.108153 30.262207,11.8050148 30.262207,11.4550781 L30.262207,9.22119141 Z M30.262207,12.4804688 C30.1401361,12.6839203 29.8146185,13.0501276 29.2856445,13.5791016 C28.4718384,14.3684935 28.0649414,15.3084255 28.0649414,16.3989258 C28.0649414,17.5789447 28.4881143,18.1689453 29.3344727,18.1689453 C29.6844093,18.1689453 29.993651,18.0306003 30.262207,17.7539062 L30.262207,12.4804688 Z M42.75,8.54980469 C43.4010449,7.29654321 44.4793219,6.66992188 45.9848633,6.66992188 C46.7986694,6.66992188 47.3846011,6.92016351 47.7426758,7.4206543 C48.1007505,7.92114508 48.2797852,8.51318018 48.2797852,9.19677734 C48.2797852,9.945479 48.0702332,10.5415831 47.651123,10.9851074 C47.2320129,11.4286318 46.6765985,11.6503906 45.9848633,11.6503906 C45.2605758,11.6503906 44.7071959,11.4896663 44.324707,11.1682129 C43.9422181,10.8467595 43.7509766,10.4093452 43.7509766,9.85595703 C43.7509766,8.86311353 44.1782184,8.08594031 45.0327148,7.52441406 C44.7316066,7.52441406 44.4630546,7.58137964 44.2270508,7.6953125 C43.8038716,7.87434985 43.4519057,8.16935016 43.1711426,8.58032227 C42.8903795,8.99129437 42.75,9.44091553 42.75,9.92919922 L42.75,17.4243164 C42.75,17.9532904 42.8232415,18.3662908 42.9697266,18.6633301 C43.1162117,18.9603693 43.344074,19.1699213 43.6533203,19.2919922 C43.9625667,19.4140631 44.3776016,19.4750977 44.8984375,19.4750977 L44.8984375,20 C42.847646,19.9348955 41.500817,19.9023438 40.8579102,19.9023438 C40.2394175,19.9023438 38.9047954,19.9348955 36.8540039,20 L36.8540039,19.4750977 C37.2039406,19.4750977 37.4806305,19.422201 37.684082,19.3164062 C37.8875336,19.2106115 38.0340165,19.0275078 38.1235352,18.7670898 C38.2130538,18.5066719 38.2578125,18.1445336 38.2578125,17.6806641 L38.2578125,9.74609375 C38.2578125,8.97297791 38.1520193,8.41349457 37.9404297,8.06762695 C37.7288401,7.72175934 37.3667018,7.54882812 36.8540039,7.54882812 L36.8540039,7.02392578 C37.3829779,7.07275415 37.8997371,7.09716797 38.4042969,7.09716797 C40.137704,7.09716797 41.5862572,6.98323682 42.75,6.75537109 L42.75,8.54980469 Z M55.5551758,9.22119141 C55.5551758,8.69221741 55.4229343,8.21818243 55.1584473,7.79907227 C54.8939603,7.3799621 54.4077184,7.17041016 53.699707,7.17041016 C53.4881174,7.17041016 53.2622896,7.21109985 53.0222168,7.29248047 C52.782144,7.37386108 52.5685231,7.47558533 52.3813477,7.59765625 C53.4962621,8.01269739 54.0537109,8.76545679 54.0537109,9.85595703 C54.0537109,10.246584 53.9540212,10.6005844 53.7546387,10.9179688 C53.5552562,11.2353531 53.2724628,11.4876293 52.90625,11.6748047 C52.5400372,11.8619801 52.1209333,11.9555664 51.6489258,11.9555664 C51.2420227,11.9555664 50.8839534,11.8599456 50.574707,11.6687012 C50.2654607,11.4774567 50.0253915,11.2150082 49.8544922,10.8813477 C49.6835929,10.5476871 49.5981445,10.1774109 49.5981445,9.77050781 C49.5981445,9.265948 49.738524,8.82039581 50.0192871,8.43383789 C50.3000502,8.04727997 50.6764299,7.72786584 51.1484375,7.47558594 C52.1982474,6.93847388 53.5328695,6.66992188 55.1523438,6.66992188 C56.1044969,6.66992188 56.910153,6.76147369 57.5693359,6.94458008 C58.2285189,7.12768646 58.7818988,7.45523853 59.2294922,7.92724609 C59.5550146,8.26904468 59.7727045,8.70238995 59.8825684,9.22729492 C59.9924322,9.75219989 60.0473633,10.4866489 60.0473633,11.4306641 L60.0473633,18.1201172 C60.0473633,18.5188822 60.0758461,18.7976066 60.1328125,18.9562988 C60.1897789,19.114991 60.2874342,19.1943359 60.4257812,19.1943359 C60.5559902,19.1943359 60.6760248,19.1638187 60.7858887,19.1027832 C60.8957525,19.0417477 61.036132,18.9501959 61.2070312,18.828125 L61.4511719,19.2553711 C61.0605449,19.5808936 60.6048203,19.8148593 60.0839844,19.9572754 C59.5631484,20.0996915 58.9365271,20.1708984 58.2041016,20.1708984 C57.3251909,20.1708984 56.6802592,19.9938983 56.2692871,19.6398926 C55.858315,19.2858869 55.6446941,18.8321968 55.628418,18.2788086 C55.2784813,18.856611 54.786136,19.3164045 54.1513672,19.6582031 C53.5165984,20.0000017 52.8167356,20.1708984 52.0517578,20.1708984 C51.0670524,20.1708984 50.2959826,19.9104844 49.7385254,19.3896484 C49.1810682,18.8688125 48.9023438,18.1730187 48.9023438,17.3022461 C48.9023438,16.4477496 49.1586888,15.7356799 49.6713867,15.1660156 C50.1840846,14.5963513 50.9856716,14.1324888 52.0761719,13.7744141 C52.9632206,13.4570297 53.6203592,13.206788 54.0476074,13.0236816 C54.4748557,12.8405753 54.832925,12.6208509 55.1218262,12.364502 C55.4107274,12.108153 55.5551758,11.8050148 55.5551758,11.4550781 L55.5551758,9.22119141 Z M55.5551758,12.4804688 C55.4331049,12.6839203 55.1075873,13.0501276 54.5786133,13.5791016 C53.7648071,14.3684935 53.3579102,15.3084255 53.3579102,16.3989258 C53.3579102,17.5789447 53.781083,18.1689453 54.6274414,18.1689453 C54.9773781,18.1689453 55.2866198,18.0306003 55.5551758,17.7539062 L55.5551758,12.4804688 Z M75.0498047,17.253418 C75.0498047,18.0265338 75.1535634,18.5860172 75.361084,18.9318848 C75.5686046,19.2777524 75.9287084,19.4506836 76.4414062,19.4506836 L76.4414062,19.9755859 C75.9205703,19.9267576 75.4038112,19.9023438 74.8911133,19.9023438 C73.1658442,19.9023438 71.717291,20.0162749 70.5454102,20.2441406 L70.5454102,18.4741211 C70.2036116,19.125166 69.7926456,19.6012355 69.3125,19.9023438 C68.8323544,20.203452 68.2260779,20.3540039 67.4936523,20.3540039 C66.5008088,20.3540039 65.6219114,20.1098657 64.8569336,19.621582 C64.0919558,19.1332983 63.4897483,18.372401 63.050293,17.3388672 C62.6108376,16.3053334 62.3911133,14.9991941 62.3911133,13.4204102 C62.3911133,11.947421 62.6189756,10.7063853 63.074707,9.69726562 C63.5304385,8.688146 64.1733357,7.93131763 65.003418,7.42675781 C65.8335002,6.922198 66.8141219,6.66992188 67.9453125,6.66992188 C69.0358127,6.66992188 69.9025033,6.8815083 70.5454102,7.3046875 L70.5454102,3.44726562 C70.5454102,2.67414978 70.4396169,2.11466644 70.2280273,1.76879883 C70.0164377,1.42293121 69.6542994,1.25 69.1416016,1.25 L69.1416016,0.725097656 C69.6624375,0.773926025 70.1791967,0.798339844 70.6918945,0.798339844 C72.4415778,0.798339844 73.8942,0.680339722 75.0498047,0.444335938 L75.0498047,17.253418 Z M70.5454102,7.82958984 C70.1791974,7.60986218 69.7885763,7.5 69.3735352,7.5 C68.6004193,7.5 68.0226256,7.99437982 67.6401367,8.9831543 C67.2576478,9.97192877 67.0664062,11.4794821 67.0664062,13.5058594 C67.0664062,15.5566509 67.2169581,16.9929972 67.5180664,17.8149414 C67.8191747,18.6368856 68.2301406,19.0478516 68.7509766,19.0478516 C69.0602229,19.0478516 69.3511542,18.9705411 69.6237793,18.815918 C69.8964044,18.6612948 70.1181632,18.4476739 70.2890625,18.1750488 C70.4599618,17.9024238 70.5454102,17.5952166 70.5454102,17.253418 L70.5454102,7.82958984 Z M98.0722656,17.6806641 C98.0722656,18.1445336 98.1170243,18.5066719 98.206543,18.7670898 C98.2960616,19.0275078 98.4405101,19.2106115 98.6398926,19.3164062 C98.8392751,19.422201 99.1139305,19.4750977 99.4638672,19.4750977 L99.4638672,20 C97.6734937,19.9348955 96.5097683,19.9023438 95.9726562,19.9023438 C95.4599584,19.9023438 94.3572676,19.9348955 92.6645508,20 L92.6645508,19.4750977 C92.9005546,19.4750977 93.0816237,19.422201 93.2077637,19.3164062 C93.3339036,19.2106115 93.4254554,19.0295423 93.4824219,18.7731934 C93.5393883,18.5168444 93.5678711,18.1526716 93.5678711,17.6806641 L93.5678711,9.55078125 C93.5678711,9.01366919 93.4702158,8.61694464 93.2749023,8.3605957 C93.0795889,8.10424677 92.7703472,7.97607422 92.347168,7.97607422 C92.0623358,7.97607422 91.7856459,8.06152258 91.5170898,8.23242188 C91.2485338,8.40332117 91.022706,8.62914899 90.8395996,8.90991211 C90.6564932,9.19067523 90.5445966,9.49381348 90.5039062,9.81933594 C90.5283204,10.1367203 90.5405273,10.4988586 90.5405273,10.9057617 L90.5405273,17.6806641 C90.5405273,18.1526716 90.5771481,18.5168444 90.6503906,18.7731934 C90.7236332,19.0295423 90.8416333,19.2106115 91.0043945,19.3164062 C91.1671558,19.422201 91.399087,19.4750977 91.7001953,19.4750977 L91.7001953,20 C90.0074785,19.9348955 88.9210636,19.9023438 88.440918,19.9023438 C87.9038059,19.9023438 86.8051841,19.9348955 85.1450195,20 L85.1450195,19.4750977 C85.3647472,19.4750977 85.5397129,19.422201 85.6699219,19.3164062 C85.8001309,19.2106115 85.8957516,19.0275078 85.9567871,18.7670898 C86.0178226,18.5066719 86.0483398,18.1445336 86.0483398,17.6806641 L86.0483398,9.55078125 C86.0483398,9.01366919 85.9710294,8.61694464 85.8164062,8.3605957 C85.6617831,8.10424677 85.4135759,7.97607422 85.0717773,7.97607422 C84.762531,7.97607422 84.4695652,8.05338464 84.1928711,8.20800781 C83.916177,8.36263098 83.6923837,8.57625189 83.5214844,8.84887695 C83.3505851,9.12150201 83.2651367,9.42870923 83.2651367,9.77050781 L83.2651367,17.6806641 C83.2651367,18.1526716 83.2936195,18.5168444 83.3505859,18.7731934 C83.4075524,19.0295423 83.5011387,19.2106115 83.6313477,19.3164062 C83.7615566,19.422201 83.9405913,19.4750977 84.168457,19.4750977 L84.168457,20 C82.6385015,19.9348955 81.621259,19.9023438 81.1166992,19.9023438 C80.5388969,19.9023438 79.2897231,19.9348955 77.3691406,20 L77.3691406,19.4750977 C77.7190773,19.4750977 77.9957672,19.422201 78.1992188,19.3164062 C78.4026703,19.2106115 78.5491532,19.0275078 78.6386719,18.7670898 C78.7281906,18.5066719 78.7729492,18.1445336 78.7729492,17.6806641 L78.7729492,9.74609375 C78.7729492,8.97297791 78.667156,8.41349457 78.4555664,8.06762695 C78.2439768,7.72175934 77.8818385,7.54882812 77.3691406,7.54882812 L77.3691406,7.02392578 C77.8899766,7.07275415 78.4067357,7.09716797 78.9194336,7.09716797 C80.6528407,7.09716797 82.1013939,6.98323682 83.2651367,6.75537109 L83.2651367,8.54980469 C83.9812861,7.29654321 85.2223219,6.66992188 86.9882812,6.66992188 C88.3229233,6.66992188 89.2669243,7.00357739 89.8203125,7.67089844 C90.0725924,7.97200671 90.2516271,8.36262781 90.3574219,8.84277344 C90.7887391,8.04524341 91.350257,7.48372559 92.0419922,7.15820312 C92.7337274,6.83268066 93.5597283,6.66992188 94.5200195,6.66992188 C95.8465236,6.66992188 96.7864556,7.00357739 97.3398438,7.67089844 C97.5921237,7.97200671 97.7772618,8.3768692 97.8952637,8.88549805 C98.0132656,9.39412689 98.0722656,10.0675414 98.0722656,10.9057617 L98.0722656,17.6806641 Z M103.785156,0.444335938 C104.655929,0.444335938 105.327309,0.627439575 105.799316,0.993652344 C106.271324,1.35986511 106.507324,1.89696912 106.507324,2.60498047 C106.507324,3.30485376 106.271324,3.83788879 105.799316,4.20410156 C105.327309,4.57031433 104.655929,4.75341797 103.785156,4.75341797 C102.898108,4.75341797 102.222659,4.57234882 101.758789,4.21020508 C101.29492,3.84806134 101.062988,3.31299182 101.062988,2.60498047 C101.062988,1.89696912 101.29492,1.35986511 101.758789,0.993652344 C102.222659,0.627439575 102.898108,0.444335938 103.785156,0.444335938 Z M106.165527,17.6806641 C106.165527,18.1445336 106.210286,18.5066719 106.299805,18.7670898 C106.389323,19.0275078 106.535806,19.2106115 106.739258,19.3164062 C106.942709,19.422201 107.219399,19.4750977 107.569336,19.4750977 L107.569336,20 C105.778962,19.9348955 104.594892,19.9023438 104.01709,19.9023438 C103.439287,19.9023438 102.190114,19.9348955 100.269531,20 L100.269531,19.4750977 C100.619468,19.4750977 100.896158,19.422201 101.099609,19.3164062 C101.303061,19.2106115 101.449544,19.0275078 101.539062,18.7670898 C101.628581,18.5066719 101.67334,18.1445336 101.67334,17.6806641 L101.67334,9.74609375 C101.67334,8.97297791 101.567547,8.41349457 101.355957,8.06762695 C101.144367,7.72175934 100.782229,7.54882812 100.269531,7.54882812 L100.269531,7.02392578 C100.798505,7.07275415 101.315264,7.09716797 101.819824,7.09716797 C103.553231,7.09716797 105.001785,6.98323682 106.165527,6.75537109 L106.165527,17.6806641 Z M114.41748,8.54980469 C115.17432,7.29654321 116.500804,6.66992188 118.396973,6.66992188 C119.723477,6.66992188 120.663409,7.00357739 121.216797,7.67089844 C121.469077,7.97200671 121.654215,8.3768692 121.772217,8.88549805 C121.890219,9.39412689 121.949219,10.0675414 121.949219,10.9057617 L121.949219,17.6806641 C121.949219,18.1445336 121.993977,18.5066719 122.083496,18.7670898 C122.173015,19.0275078 122.317463,19.2106115 122.516846,19.3164062 C122.716228,19.422201 122.990884,19.4750977 123.34082,19.4750977 L123.34082,20 C121.550447,19.9348955 120.386721,19.9023438 119.849609,19.9023438 C119.271807,19.9023438 118.087737,19.9348955 116.297363,20 L116.297363,19.4750977 C116.590333,19.4750977 116.818196,19.422201 116.980957,19.3164062 C117.143718,19.2106115 117.261718,19.0295423 117.334961,18.7731934 C117.408203,18.5168444 117.444824,18.1526716 117.444824,17.6806641 L117.444824,9.55078125 C117.444824,9.01366919 117.347169,8.61694464 117.151855,8.3605957 C116.956542,8.10424677 116.6473,7.97607422 116.224121,7.97607422 C115.914875,7.97607422 115.621909,8.05338464 115.345215,8.20800781 C115.068521,8.36263098 114.844727,8.57625189 114.673828,8.84887695 C114.502929,9.12150201 114.41748,9.42870923 114.41748,9.77050781 L114.41748,17.6806641 C114.41748,18.1445336 114.454101,18.5066719 114.527344,18.7670898 C114.600586,19.0275078 114.720621,19.2106115 114.887451,19.3164062 C115.054281,19.422201 115.284178,19.4750977 115.577148,19.4750977 L115.577148,20 C113.884432,19.9348955 112.781741,19.9023438 112.269043,19.9023438 C111.691241,19.9023438 110.442067,19.9348955 108.521484,20 L108.521484,19.4750977 C108.871421,19.4750977 109.148111,19.422201 109.351562,19.3164062 C109.555014,19.2106115 109.701497,19.0275078 109.791016,18.7670898 C109.880534,18.5066719 109.925293,18.1445336 109.925293,17.6806641 L109.925293,9.74609375 C109.925293,8.97297791 109.8195,8.41349457 109.60791,8.06762695 C109.396321,7.72175934 109.034182,7.54882812 108.521484,7.54882812 L108.521484,7.02392578 C109.050458,7.07275415 109.567218,7.09716797 110.071777,7.09716797 C111.805184,7.09716797 113.253738,6.98323682 114.41748,6.75537109 L114.41748,8.54980469 Z" id="Staradmin" fill="#FFFFFF" fill-rule="nonzero"></path>
    </g>
</svg>