<?xml version="1.0" encoding="UTF-8"?>
<svg width="50px" height="49px" viewBox="0 0 50 49" version="1.1" xmlns="http://www.w3.org/2000/svg" xmlns:xlink="http://www.w3.org/1999/xlink">
    <!-- Generator: Sketch 53 (72520) - https://sketchapp.com -->
    <title>Group 2</title>
    <desc>Created with Sketch.</desc>
    <defs>
        <filter x="-60.0%" y="-60.0%" width="220.0%" height="220.0%" filterUnits="objectBoundingBox" id="filter-1">
            <feGaussianBlur stdDeviation="5" in="SourceGraphic"></feGaussianBlur>
        </filter>
    </defs>
    <g id="Symbols" stroke="none" stroke-width="1" fill="none" fill-rule="evenodd">
        <g id="Cards/Card_10" transform="translate(-26.000000, -155.000000)">
            <g id="Group-2" transform="translate(34.000000, 160.000000)">
                <circle id="Oval-Copy-36" fill="#1458E8" filter="url(#filter-1)" cx="17" cy="19.5" r="12.5"></circle>
                <circle id="Oval-Copy-37" fill="#0955B8" cx="16" cy="16" r="16"></circle>
                <path d="M19.7364005,10.0027049 L18.0574188,10 C16.1711405,10 14.9521445,11.2557348 14.9521445,13.1993175 L14.9521445,14.6744172 L13.2640035,14.6744172 C13.1181281,14.6744172 13,14.7931608 13,14.9396294 L13,17.0768807 C13,17.2233493 13.1182628,17.3419577 13.2640035,17.3419577 L14.9521445,17.3419577 L14.9521445,22.734923 C14.9521445,22.8813916 15.0702727,23 15.2161481,23 L17.4186919,23 C17.5645673,23 17.6826955,22.8812563 17.6826955,22.734923 L17.6826955,17.3419577 L19.656526,17.3419577 C19.8024014,17.3419577 19.9205295,17.2233493 19.9205295,17.0768807 L19.9213377,14.9396294 C19.9213377,14.8693029 19.8934557,14.8019517 19.8440224,14.7521821 C19.7945891,14.7024125 19.7272412,14.6744172 19.6571995,14.6744172 L17.6826955,14.6744172 L17.6826955,13.4239568 C17.6826955,12.8229352 17.8253382,12.5178261 18.6050915,12.5178261 L19.7361312,12.5174204 C19.8818719,12.5174204 20,12.3986767 20,12.2523434 L20,10.2677819 C20,10.1215838 19.8820066,10.0029754 19.7364005,10.0027049 Z" id="Path" fill="#FFFFFF" fill-rule="nonzero"></path>
            </g>
        </g>
    </g>
</svg>