<?xml version="1.0" encoding="UTF-8"?>
<svg width="50px" height="49px" viewBox="0 0 50 49" version="1.1" xmlns="http://www.w3.org/2000/svg" xmlns:xlink="http://www.w3.org/1999/xlink">
    <!-- Generator: Sketch 53 (72520) - https://sketchapp.com -->
    <title>Group 3</title>
    <desc>Created with Sketch.</desc>
    <defs>
        <filter x="-60.0%" y="-60.0%" width="220.0%" height="220.0%" filterUnits="objectBoundingBox" id="filter-1">
            <feGaussianBlur stdDeviation="5" in="SourceGraphic"></feGaussianBlur>
        </filter>
    </defs>
    <g id="Symbols" stroke="none" stroke-width="1" fill="none" fill-rule="evenodd">
        <g id="Cards/Card_10" transform="translate(-26.000000, -226.000000)">
            <g id="Group-3" transform="translate(35.000000, 230.000000)">
                <circle id="Oval-Copy-34" fill="#02ACFF" filter="url(#filter-1)" cx="16" cy="20.5" r="12.5"></circle>
                <g id="Group-14">
                    <circle id="Oval-Copy-35" fill="#02ACFF" cx="16" cy="16" r="16"></circle>
                    <path d="M23,12.4206154 C22.479375,12.6615385 21.924625,12.8212308 21.34625,12.8987692 C21.94125,12.524 22.395375,11.9350769 22.608875,11.2252308 C22.054125,11.5741538 21.441625,11.8206154 20.788875,11.9581538 C20.262125,11.3664615 19.511375,11 18.692375,11 C17.103375,11 15.824125,12.3606154 15.824125,14.0286154 C15.824125,14.2686154 15.843375,14.4993846 15.890625,14.7190769 C13.5045,14.5963077 11.393125,13.3898462 9.97475,11.552 C9.727125,12.0052308 9.581875,12.524 9.581875,13.0824615 C9.581875,14.1310769 10.09375,15.0606154 10.85675,15.5987692 C10.395625,15.5895385 9.94325,15.4483077 9.56,15.2258462 C9.56,15.2350769 9.56,15.2470769 9.56,15.2590769 C9.56,16.7304615 10.554875,17.9526154 11.8595,18.2341538 C11.625875,18.3015385 11.37125,18.3338462 11.107,18.3338462 C10.92325,18.3338462 10.73775,18.3227692 10.563625,18.2821538 C10.9355,19.4812308 11.99075,20.3627692 13.2455,20.3913846 C12.269,21.1972308 11.029125,21.6827692 9.686875,21.6827692 C9.4515,21.6827692 9.22575,21.6716923 9,21.6412308 C10.271375,22.5061538 11.778125,23 13.403,23 C18.6845,23 21.572,18.3846154 21.572,14.384 C21.572,14.2501538 21.567625,14.1209231 21.5615,13.9926154 C22.131125,13.5661538 22.60975,13.0335385 23,12.4206154 Z" id="Path" fill="#FFFFFF" fill-rule="nonzero"></path>
                </g>
            </g>
        </g>
    </g>
</svg>