<?xml version="1.0" encoding="utf-8"?>
<!-- Generator: Adobe Illustrator 21.0.0, SVG Export Plug-In . SVG Version: 6.00 Build 0)  -->
<svg version="1.1" id="Layer_1" xmlns="http://www.w3.org/2000/svg" xmlns:xlink="http://www.w3.org/1999/xlink" x="0px" y="0px"
	 viewBox="0 0 171 65.5" style="enable-background:new 0 0 171 65.5;" xml:space="preserve">
<style type="text/css">
	.st0{fill:url(#SVGID_1_);}
	.st1{fill:#343434;}
</style>
<g>
	<linearGradient id="SVGID_1_" gradientUnits="userSpaceOnUse" x1="23.3859" y1="19.5948" x2="34.6359" y2="35.2614">
		<stop  offset="0" style="stop-color:#04BEFE"/>
		<stop  offset="0.5044" style="stop-color:#19A6F1"/>
		<stop  offset="1" style="stop-color:#318BE3"/>
	</linearGradient>
	<path class="st0" d="M36.2,24l-4.5-0.7l-2-4.3c-0.1-0.3-0.4-0.5-0.8-0.5c-0.3,0-0.6,0.2-0.8,0.5l-2,4.3L21.7,24
		c-0.3,0-0.6,0.3-0.7,0.6c-0.1,0.3,0,0.7,0.2,0.9l3.3,3.3l-0.8,4.7c-0.1,0.3,0.1,0.7,0.3,0.9c0.3,0.2,0.6,0.2,0.9,0.1l4-2.2l4,2.2
		c0.1,0.1,0.3,0.1,0.4,0.1c0.2,0,0.4-0.1,0.5-0.2c0.3-0.2,0.4-0.5,0.3-0.9l-0.8-4.7l3.3-3.3c0.2-0.2,0.3-0.6,0.2-0.9
		C36.8,24.2,36.5,24,36.2,24z"/>
</g>
<g>
	<path class="st1" d="M45,26.2c0-0.9,0.4-1.7,1.2-2.4c0.8-0.6,1.8-1,3.1-1c1.3,0,2.3,0.3,3,1c0.8,0.6,1.2,1.5,1.2,2.6h-2.3
		c0-0.5-0.2-1-0.6-1.3c-0.3-0.3-0.8-0.5-1.4-0.5s-1.1,0.1-1.4,0.4c-0.3,0.3-0.5,0.6-0.5,1.1c0,0.4,0.2,0.8,0.7,1
		c0.4,0.3,1,0.4,1.6,0.6c0.6,0.1,1.3,0.3,1.9,0.4c0.6,0.2,1.2,0.5,1.6,1c0.4,0.5,0.7,1.1,0.7,1.9c0,1-0.4,1.7-1.2,2.3
		c-0.8,0.6-1.8,0.9-3.1,0.9c-1.3,0-2.3-0.3-3.1-0.9c-0.8-0.6-1.2-1.5-1.3-2.6h2.4c0,0.5,0.2,1,0.6,1.3c0.4,0.3,0.8,0.5,1.5,0.5
		s1.1-0.1,1.5-0.4c0.4-0.3,0.6-0.6,0.6-1.1s-0.2-0.8-0.7-1.1c-0.4-0.3-1-0.4-1.6-0.6c-0.6-0.1-1.3-0.3-1.9-0.4
		c-0.6-0.2-1.2-0.5-1.6-0.9C45.2,27.5,45,26.9,45,26.2z"/>
	<path class="st1" d="M61.5,24.9h-2.7V31c0,0.4,0.1,0.7,0.3,0.9c0.2,0.2,0.5,0.3,1,0.3h1.4v1.9h-1.8c-2.1,0-3.2-1-3.2-3.1v-6.1h-1.3
		V23h1.3v-2.7h2.3V23h2.7V24.9z"/>
	<path class="st1" d="M64.4,32.6c-1-1.1-1.5-2.4-1.5-4.1s0.5-3,1.5-4.1c1-1,2.2-1.6,3.7-1.6c0.9,0,1.6,0.2,2.3,0.6
		c0.7,0.4,1.2,0.9,1.5,1.5v-2h2.3v11h-2.3V32c-0.4,0.7-0.9,1.2-1.5,1.6c-0.7,0.4-1.4,0.6-2.3,0.6C66.6,34.2,65.4,33.7,64.4,32.6z
		 M70.9,31.2c0.7-0.7,1-1.6,1-2.7c0-1.1-0.3-2-1-2.7c-0.7-0.7-1.4-1-2.3-1c-0.9,0-1.7,0.3-2.3,1s-1,1.5-1,2.7c0,1.1,0.3,2,1,2.7
		s1.4,1,2.3,1C69.4,32.3,70.2,31.9,70.9,31.2z"/>
	<path class="st1" d="M79.5,23V25c0.7-1.4,1.8-2.1,3.3-2.1v2.4h-0.6c-0.9,0-1.6,0.2-2,0.7s-0.7,1.2-0.7,2.4v5.8h-2.3V23H79.5z"/>
	<path class="st1" d="M94.4,34.1l-1.1-3h-6.2l-1.1,3h-1.9l5-13.9h2l5,13.9H94.4z M87.7,29.6h5.1l-2.6-7.2L87.7,29.6z"/>
	<path class="st1" d="M99.5,32.6c-1-1.1-1.5-2.4-1.5-4.1s0.5-3,1.5-4.1c1-1,2.2-1.6,3.8-1.6c0.9,0,1.8,0.2,2.5,0.7s1.2,1,1.6,1.7v-6
		h1.8v14.8h-1.8v-2.2c-0.4,0.7-0.9,1.3-1.6,1.8c-0.7,0.4-1.5,0.7-2.5,0.7C101.7,34.2,100.5,33.7,99.5,32.6z M106.1,31.6
		c0.7-0.7,1.1-1.7,1.1-3c0-1.2-0.4-2.2-1.1-3c-0.7-0.7-1.6-1.1-2.6-1.1c-1,0-1.9,0.4-2.6,1.1c-0.7,0.7-1.1,1.7-1.1,2.9
		c0,1.2,0.4,2.2,1.1,3c0.7,0.8,1.6,1.2,2.6,1.2C104.6,32.7,105.4,32.3,106.1,31.6z"/>
	<path class="st1" d="M113.9,23.1v1.8c0.7-1.3,1.9-2,3.6-2c0.8,0,1.6,0.2,2.3,0.6c0.7,0.4,1.2,1,1.5,1.8c0.4-0.7,0.9-1.3,1.6-1.7
		c0.7-0.4,1.5-0.6,2.4-0.6c1.2,0,2.3,0.4,3.1,1.2c0.8,0.8,1.2,2,1.2,3.5v6.5h-1.8v-6.2c0-1.1-0.3-1.9-0.8-2.5s-1.3-0.9-2.2-0.9
		s-1.7,0.3-2.2,0.9s-0.8,1.4-0.8,2.5v6.2h-1.8v-6.2c0-1.1-0.3-1.9-0.8-2.5s-1.3-0.9-2.2-0.9c-0.9,0-1.7,0.3-2.2,0.9
		s-0.8,1.4-0.8,2.5v6.2h-1.8v-11H113.9z"/>
	<path class="st1" d="M134.3,21c-0.2,0.2-0.5,0.4-0.9,0.4s-0.6-0.1-0.9-0.4c-0.2-0.2-0.3-0.5-0.3-0.9s0.1-0.6,0.4-0.9
		c0.2-0.2,0.5-0.4,0.9-0.4s0.6,0.1,0.9,0.4c0.2,0.2,0.4,0.5,0.4,0.9S134.5,20.7,134.3,21z M132.5,34.1v-11h1.8v11H132.5z"/>
	<path class="st1" d="M139.1,23.1v1.8c0.7-1.3,1.9-2,3.6-2c1.2,0,2.2,0.4,3,1.2c0.8,0.8,1.2,2,1.2,3.5v6.5h-1.8v-6.2
		c0-1.1-0.3-1.9-0.8-2.5s-1.3-0.9-2.2-0.9c-0.9,0-1.7,0.3-2.2,0.9s-0.8,1.4-0.8,2.5v6.2h-1.8v-11H139.1z"/>
</g>
</svg>
