<svg version="1.1" id="Layer_1" xmlns="http://www.w3.org/2000/svg" xmlns:xlink="http://www.w3.org/1999/xlink" x="0px" y="0px"
	 viewBox="-212 388.4 171 65.5" style="enable-background:new -212 388.4 171 65.5;" xml:space="preserve">
<style type="text/css">
	.st0{fill:url(#SVGID_1_);}
	.st1{fill:#343434;}
</style>
<g>
	
		<linearGradient id="SVGID_1_" gradientUnits="userSpaceOnUse" x1="-188.6344" y1="434.6706" x2="-177.3844" y2="419.004" gradientTransform="matrix(1 0 0 -1 0 842.67)">
		<stop  offset="0" style="stop-color:#04BEFE"/>
		<stop  offset="0.5044" style="stop-color:#19A6F1"/>
		<stop  offset="1" style="stop-color:#318BE3"/>
	</linearGradient>
	<path class="st0" d="M-175.8,412.4l-4.5-0.7l-2-4.3c-0.1-0.3-0.4-0.5-0.8-0.5c-0.3,0-0.6,0.2-0.8,0.5l-2,4.3l-4.4,0.7
		c-0.3,0-0.6,0.3-0.7,0.6c-0.1,0.3,0,0.7,0.2,0.9l3.3,3.3l-0.8,4.7c-0.1,0.3,0.1,0.7,0.3,0.9c0.3,0.2,0.6,0.2,0.9,0.1l4-2.2l4,2.2
		c0.1,0.1,0.3,0.1,0.4,0.1c0.2,0,0.4-0.1,0.5-0.2c0.3-0.2,0.4-0.5,0.3-0.9l-0.8-4.7l3.3-3.3c0.2-0.2,0.3-0.6,0.2-0.9
		C-175.2,412.6-175.5,412.4-175.8,412.4z"/>
</g>
<g>
	<path class="st1" d="M-167,414.6c0-0.9,0.4-1.7,1.2-2.4c0.8-0.6,1.8-1,3.1-1s2.3,0.3,3,1c0.8,0.6,1.2,1.5,1.2,2.6h-2.3
		c0-0.5-0.2-1-0.6-1.3c-0.3-0.3-0.8-0.5-1.4-0.5c-0.6,0-1.1,0.1-1.4,0.4c-0.3,0.3-0.5,0.6-0.5,1.1c0,0.4,0.2,0.8,0.7,1
		c0.4,0.3,1,0.4,1.6,0.6c0.6,0.1,1.3,0.3,1.9,0.4c0.6,0.2,1.2,0.5,1.6,1c0.4,0.5,0.7,1.1,0.7,1.9c0,1-0.4,1.7-1.2,2.3
		c-0.8,0.6-1.8,0.9-3.1,0.9s-2.3-0.3-3.1-0.9c-0.8-0.6-1.2-1.5-1.3-2.6h2.4c0,0.5,0.2,1,0.6,1.3c0.4,0.3,0.8,0.5,1.5,0.5
		c0.7,0,1.1-0.1,1.5-0.4c0.4-0.3,0.6-0.6,0.6-1.1s-0.2-0.8-0.7-1.1c-0.4-0.3-1-0.4-1.6-0.6c-0.6-0.1-1.3-0.3-1.9-0.4
		c-0.6-0.2-1.2-0.5-1.6-0.9C-166.8,415.9-167,415.3-167,414.6z"/>
	<path class="st1" d="M-150.5,413.3h-2.7v6.1c0,0.4,0.1,0.7,0.3,0.9c0.2,0.2,0.5,0.3,1,0.3h1.4v1.9h-1.8c-2.1,0-3.2-1-3.2-3.1v-6.1
		h-1.3v-1.9h1.3v-2.7h2.3v2.7h2.7V413.3z"/>
	<path class="st1" d="M-147.6,421c-1-1.1-1.5-2.4-1.5-4.1c0-1.7,0.5-3,1.5-4.1c1-1,2.2-1.6,3.7-1.6c0.9,0,1.6,0.2,2.3,0.6
		c0.7,0.4,1.2,0.9,1.5,1.5v-2h2.3v11h-2.3v-1.9c-0.4,0.7-0.9,1.2-1.5,1.6c-0.7,0.4-1.4,0.6-2.3,0.6
		C-145.4,422.6-146.6,422.1-147.6,421z M-141.1,419.6c0.7-0.7,1-1.6,1-2.7c0-1.1-0.3-2-1-2.7c-0.7-0.7-1.4-1-2.3-1
		c-0.9,0-1.7,0.3-2.3,1s-1,1.5-1,2.7c0,1.1,0.3,2,1,2.7c0.7,0.7,1.4,1,2.3,1C-142.6,420.7-141.8,420.3-141.1,419.6z"/>
	<path class="st1" d="M-132.5,411.4v2c0.7-1.4,1.8-2.1,3.3-2.1v2.4h-0.6c-0.9,0-1.6,0.2-2,0.7c-0.4,0.5-0.7,1.2-0.7,2.4v5.8h-2.3
		v-11.2H-132.5z"/>
	<path class="st1" d="M-117.6,422.5l-1.1-3h-6.2l-1.1,3h-1.9l5-13.9h2l5,13.9H-117.6z M-124.3,418h5.1l-2.6-7.2L-124.3,418z"/>
	<path class="st1" d="M-112.5,421c-1-1.1-1.5-2.4-1.5-4.1c0-1.7,0.5-3,1.5-4.1c1-1,2.2-1.6,3.8-1.6c0.9,0,1.8,0.2,2.5,0.7
		s1.2,1,1.6,1.7v-6h1.8v14.8h-1.8v-2.2c-0.4,0.7-0.9,1.3-1.6,1.8c-0.7,0.4-1.5,0.7-2.5,0.7C-110.3,422.6-111.5,422.1-112.5,421z
		 M-105.9,420c0.7-0.7,1.1-1.7,1.1-3c0-1.2-0.4-2.2-1.1-3c-0.7-0.7-1.6-1.1-2.6-1.1s-1.9,0.4-2.6,1.1c-0.7,0.7-1.1,1.7-1.1,2.9
		c0,1.2,0.4,2.2,1.1,3c0.7,0.8,1.6,1.2,2.6,1.2C-107.4,421.1-106.6,420.7-105.9,420z"/>
	<path class="st1" d="M-98.1,411.5v1.8c0.7-1.3,1.9-2,3.6-2c0.8,0,1.6,0.2,2.3,0.6c0.7,0.4,1.2,1,1.5,1.8c0.4-0.7,0.9-1.3,1.6-1.7
		c0.7-0.4,1.5-0.6,2.4-0.6c1.2,0,2.3,0.4,3.1,1.2s1.2,2,1.2,3.5v6.5h-1.8v-6.2c0-1.1-0.3-1.9-0.8-2.5c-0.5-0.6-1.3-0.9-2.2-0.9
		s-1.7,0.3-2.2,0.9c-0.5,0.6-0.8,1.4-0.8,2.5v6.2H-92v-6.2c0-1.1-0.3-1.9-0.8-2.5c-0.5-0.6-1.3-0.9-2.2-0.9c-0.9,0-1.7,0.3-2.2,0.9
		c-0.5,0.6-0.8,1.4-0.8,2.5v6.2h-1.8v-11h1.7V411.5z"/>
	<path class="st1" d="M-77.7,409.4c-0.2,0.2-0.5,0.4-0.9,0.4s-0.6-0.1-0.9-0.4c-0.2-0.2-0.3-0.5-0.3-0.9c0-0.4,0.1-0.6,0.4-0.9
		c0.2-0.2,0.5-0.4,0.9-0.4s0.6,0.1,0.9,0.4c0.2,0.2,0.4,0.5,0.4,0.9C-77.2,408.9-77.5,409.1-77.7,409.4z M-79.5,422.5v-11h1.8v11
		H-79.5z"/>
	<path class="st1" d="M-72.9,411.5v1.8c0.7-1.3,1.9-2,3.6-2c1.2,0,2.2,0.4,3,1.2c0.8,0.8,1.2,2,1.2,3.5v6.5h-1.8v-6.2
		c0-1.1-0.3-1.9-0.8-2.5c-0.5-0.6-1.3-0.9-2.2-0.9s-1.7,0.3-2.2,0.9c-0.5,0.6-0.8,1.4-0.8,2.5v6.2h-1.8v-11
		C-74.7,411.5-72.9,411.5-72.9,411.5z"/>
</g>
</svg>