<svg id="SvgjsSvg1011" xmlns="http://www.w3.org/2000/svg" version="1.1" xmlns:xlink="http://www.w3.org/1999/xlink" xmlns:svgjs="http://svgjs.com/svgjs" width="18" height="19" viewBox="0 0 18 19"><title>Shape</title><desc>Created with Avocode.</desc><defs id="SvgjsDefs1012"></defs><path id="SvgjsPath1013" d="M603.64 503.84C603.64 503.2 603.58 502.59 603.48 502L595 502L595 505.48L599.84 505.48C599.64 506.61 599 507.56 598.0500000000001 508.20000000000005L598.0500000000001 510.46000000000004L600.96 510.46000000000004C602.6600000000001 508.89000000000004 603.64 506.58000000000004 603.64 503.84000000000003Z " fill="#4285f4" fill-opacity="1" transform="matrix(1,0,0,1,-586,-495)"></path><path id="SvgjsPath1014" d="M595.04 513.29C597.4699999999999 513.29 599.51 512.48 601 511.10999999999996L598.09 508.84999999999997C597.2800000000001 509.39 596.25 509.71 595.0400000000001 509.71C592.7 509.71 590.71 508.13 590.0100000000001 506L587.0000000000001 506L587.0000000000001 508.33C588.4800000000001 511.27 591.5200000000001 513.29 595.0400000000001 513.29Z " fill="#34a853" fill-opacity="1" transform="matrix(1,0,0,1,-586,-495)"></path><path id="SvgjsPath1015" d="M589.96 505.75C589.7800000000001 505.21 589.6800000000001 504.64 589.6800000000001 504.04C589.6800000000001 503.45000000000005 589.7800000000001 502.87 589.96 502.33000000000004L589.96 500.00000000000006L586.96 500.00000000000006C586.35 501.2200000000001 586 502.59000000000003 586 504.0400000000001C586 505.49000000000007 586.35 506.87000000000006 586.96 508.0800000000001Z " fill="#fbbc05" fill-opacity="1" transform="matrix(1,0,0,1,-586,-495)"></path><path id="SvgjsPath1016" d="M595.04 498.58C596.36 498.58 597.55 499.03 598.48 499.93L601.0600000000001 497.34000000000003C599.5100000000001 495.89000000000004 597.47 495.00000000000006 595.0400000000001 495.00000000000006C591.5200000000001 495.00000000000006 588.4800000000001 497.02000000000004 587.0000000000001 499.96000000000004L590.0100000000001 502.29C590.7100000000002 500.16 592.7000000000002 498.58000000000004 595.0400000000001 498.58000000000004Z " fill="#ea4335" fill-opacity="1" transform="matrix(1,0,0,1,-586,-495)"></path></svg>